%TF.GenerationSoftware,KiCad,Pcbnew,8.0.8*%
%TF.CreationDate,2025-04-21T18:24:13-04:00*%
%TF.ProjectId,ramen-v2,72616d65-6e2d-4763-922e-6b696361645f,rev?*%
%TF.SameCoordinates,Original*%
%TF.FileFunction,Copper,L1,Top*%
%TF.FilePolarity,Positive*%
%FSLAX46Y46*%
G04 Gerber Fmt 4.6, Leading zero omitted, Abs format (unit mm)*
G04 Created by KiCad (PCBNEW 8.0.8) date 2025-04-21 18:24:13*
%MOMM*%
%LPD*%
G01*
G04 APERTURE LIST*
G04 Aperture macros list*
%AMRoundRect*
0 Rectangle with rounded corners*
0 $1 Rounding radius*
0 $2 $3 $4 $5 $6 $7 $8 $9 X,Y pos of 4 corners*
0 Add a 4 corners polygon primitive as box body*
4,1,4,$2,$3,$4,$5,$6,$7,$8,$9,$2,$3,0*
0 Add four circle primitives for the rounded corners*
1,1,$1+$1,$2,$3*
1,1,$1+$1,$4,$5*
1,1,$1+$1,$6,$7*
1,1,$1+$1,$8,$9*
0 Add four rect primitives between the rounded corners*
20,1,$1+$1,$2,$3,$4,$5,0*
20,1,$1+$1,$4,$5,$6,$7,0*
20,1,$1+$1,$6,$7,$8,$9,0*
20,1,$1+$1,$8,$9,$2,$3,0*%
G04 Aperture macros list end*
%TA.AperFunction,ComponentPad*%
%ADD10C,2.000000*%
%TD*%
%TA.AperFunction,SMDPad,CuDef*%
%ADD11RoundRect,0.250000X-0.650000X0.412500X-0.650000X-0.412500X0.650000X-0.412500X0.650000X0.412500X0*%
%TD*%
%TA.AperFunction,ComponentPad*%
%ADD12R,1.700000X1.700000*%
%TD*%
%TA.AperFunction,ComponentPad*%
%ADD13O,1.700000X1.700000*%
%TD*%
%TA.AperFunction,SMDPad,CuDef*%
%ADD14RoundRect,0.250000X-0.450000X0.350000X-0.450000X-0.350000X0.450000X-0.350000X0.450000X0.350000X0*%
%TD*%
%TA.AperFunction,SMDPad,CuDef*%
%ADD15RoundRect,0.250000X0.650000X-0.412500X0.650000X0.412500X-0.650000X0.412500X-0.650000X-0.412500X0*%
%TD*%
%TA.AperFunction,SMDPad,CuDef*%
%ADD16R,1.500000X0.900000*%
%TD*%
%TA.AperFunction,HeatsinkPad*%
%ADD17C,0.600000*%
%TD*%
%TA.AperFunction,HeatsinkPad*%
%ADD18R,2.900000X2.900000*%
%TD*%
%TA.AperFunction,SMDPad,CuDef*%
%ADD19RoundRect,0.250000X-0.350000X-0.450000X0.350000X-0.450000X0.350000X0.450000X-0.350000X0.450000X0*%
%TD*%
%TA.AperFunction,ViaPad*%
%ADD20C,0.600000*%
%TD*%
%TA.AperFunction,Conductor*%
%ADD21C,0.500000*%
%TD*%
%TA.AperFunction,Conductor*%
%ADD22C,0.300000*%
%TD*%
%TA.AperFunction,Conductor*%
%ADD23C,0.200000*%
%TD*%
G04 APERTURE END LIST*
D10*
%TO.P,SW1,1,1*%
%TO.N,GND*%
X128000000Y-69500000D03*
X128000000Y-76000000D03*
%TO.P,SW1,2,2*%
%TO.N,Net-(U1-EN)*%
X123500000Y-69500000D03*
X123500000Y-76000000D03*
%TD*%
D11*
%TO.P,C3,1*%
%TO.N,3V3Buck*%
X126510000Y-78667500D03*
%TO.P,C3,2*%
%TO.N,GND*%
X126510000Y-81792500D03*
%TD*%
D12*
%TO.P,J2,1,GND*%
%TO.N,GND*%
X143800000Y-94500000D03*
D13*
%TO.P,J2,2,3V*%
%TO.N,3V3Buck*%
X141260000Y-94500000D03*
%TO.P,J2,3,Vin*%
%TO.N,Net-(J2-Vin)*%
X138720000Y-94500000D03*
%TO.P,J2,4,En*%
%TO.N,unconnected-(J2-En-Pad4)*%
X136180000Y-94500000D03*
%TD*%
D12*
%TO.P,J4,1,load+*%
%TO.N,Net-(J4-load+)*%
X161100000Y-97775000D03*
D13*
%TO.P,J4,2,load-*%
%TO.N,GND*%
X161100000Y-95235000D03*
%TD*%
D14*
%TO.P,R2,1*%
%TO.N,/5VBoost*%
X123700000Y-88100000D03*
%TO.P,R2,2*%
%TO.N,/SCL*%
X123700000Y-90100000D03*
%TD*%
D15*
%TO.P,C4,1*%
%TO.N,GND*%
X132000000Y-83000000D03*
%TO.P,C4,2*%
%TO.N,Net-(U1-EN)*%
X132000000Y-79875000D03*
%TD*%
D14*
%TO.P,R3,1*%
%TO.N,/5VBoost*%
X123700000Y-84000000D03*
%TO.P,R3,2*%
%TO.N,/SDA*%
X123700000Y-86000000D03*
%TD*%
D12*
%TO.P,J3,1,Vin*%
%TO.N,Net-(J2-Vin)*%
X156620000Y-94500000D03*
D13*
%TO.P,J3,2,GND*%
%TO.N,GND*%
X154080000Y-94500000D03*
%TO.P,J3,3,5V*%
%TO.N,/5VBoost*%
X151540000Y-94500000D03*
%TO.P,J3,4,EN*%
%TO.N,unconnected-(J3-EN-Pad4)*%
X149000000Y-94500000D03*
%TD*%
D12*
%TO.P,J7,1,VDD*%
%TO.N,/5VBoost*%
X128500000Y-84960000D03*
D13*
%TO.P,J7,2,GND*%
%TO.N,GND*%
X128500000Y-87500000D03*
%TO.P,J7,3,SDA*%
%TO.N,/SDA*%
X128500000Y-90040000D03*
%TO.P,J7,4,SCL*%
%TO.N,/SCL*%
X128500000Y-92580000D03*
%TO.P,J7,5,SEL*%
%TO.N,GND*%
X128500000Y-95120000D03*
%TD*%
D12*
%TO.P,J6,1,Vin*%
%TO.N,Net-(J4-load+)*%
X161100000Y-101935000D03*
D13*
%TO.P,J6,2,Vout*%
%TO.N,Net-(J2-Vin)*%
X161100000Y-104475000D03*
%TO.P,J6,3,GND*%
%TO.N,GND*%
X161100000Y-107015000D03*
%TD*%
D12*
%TO.P,J5,1,CC2*%
%TO.N,unconnected-(J5-CC2-Pad1)*%
X161100000Y-70040000D03*
D13*
%TO.P,J5,2,SBU1*%
%TO.N,unconnected-(J5-SBU1-Pad2)*%
X161100000Y-72580000D03*
%TO.P,J5,3,D+*%
%TO.N,/D+*%
X161100000Y-75120000D03*
%TO.P,J5,4,D-*%
%TO.N,/D-*%
X161100000Y-77660000D03*
%TO.P,J5,5,CC1*%
%TO.N,unconnected-(J5-CC1-Pad5)*%
X161100000Y-80200000D03*
%TO.P,J5,6,SBU2*%
%TO.N,unconnected-(J5-SBU2-Pad6)*%
X161100000Y-82740000D03*
%TO.P,J5,7,VBUS*%
%TO.N,unconnected-(J5-VBUS-Pad7)*%
X161100000Y-85280000D03*
%TO.P,J5,8,GND*%
%TO.N,GND*%
X161100000Y-87820000D03*
%TD*%
D11*
%TO.P,C2,1*%
%TO.N,3V3Buck*%
X129000000Y-78675000D03*
%TO.P,C2,2*%
%TO.N,GND*%
X129000000Y-81800000D03*
%TD*%
D14*
%TO.P,R4,1*%
%TO.N,3V3Buck*%
X123700000Y-92300000D03*
%TO.P,R4,2*%
%TO.N,Net-(U1-IO8)*%
X123700000Y-94300000D03*
%TD*%
D16*
%TO.P,U1,1,3V3*%
%TO.N,3V3Buck*%
X135360000Y-78380000D03*
%TO.P,U1,2,EN*%
%TO.N,Net-(U1-EN)*%
X135360000Y-79880000D03*
%TO.P,U1,3,IO4*%
%TO.N,/SDA*%
X135360000Y-81380000D03*
%TO.P,U1,4,IO5*%
%TO.N,/SCL*%
X135360000Y-82880000D03*
%TO.P,U1,5,IO6*%
%TO.N,unconnected-(U1-IO6-Pad5)*%
X135360000Y-84380000D03*
%TO.P,U1,6,IO7*%
%TO.N,unconnected-(U1-IO7-Pad6)*%
X135360000Y-85880000D03*
%TO.P,U1,7,IO8*%
%TO.N,Net-(U1-IO8)*%
X135360000Y-87380000D03*
%TO.P,U1,8,IO9*%
%TO.N,Net-(U1-IO9)*%
X135360000Y-88880000D03*
%TO.P,U1,9,GND*%
%TO.N,GND*%
X135360000Y-90380000D03*
%TO.P,U1,10,IO10*%
%TO.N,unconnected-(U1-IO10-Pad10)*%
X152860000Y-90380000D03*
%TO.P,U1,11,IO20/RXD*%
%TO.N,unconnected-(U1-IO20{slash}RXD-Pad11)*%
X152860000Y-88880000D03*
%TO.P,U1,12,IO21/TXD*%
%TO.N,unconnected-(U1-IO21{slash}TXD-Pad12)*%
X152860000Y-87380000D03*
%TO.P,U1,13,IO18*%
%TO.N,/D+*%
X152860000Y-85880000D03*
%TO.P,U1,14,IO19*%
%TO.N,/D-*%
X152860000Y-84380000D03*
%TO.P,U1,15,IO3*%
%TO.N,unconnected-(U1-IO3-Pad15)*%
X152860000Y-82880000D03*
%TO.P,U1,16,IO2*%
%TO.N,Net-(U1-IO2)*%
X152860000Y-81380000D03*
%TO.P,U1,17,IO1*%
%TO.N,unconnected-(U1-IO1-Pad17)*%
X152860000Y-79880000D03*
%TO.P,U1,18,IO0*%
%TO.N,unconnected-(U1-IO0-Pad18)*%
X152860000Y-78380000D03*
D17*
%TO.P,U1,19,GND*%
%TO.N,GND*%
X143970000Y-84030000D03*
X143970000Y-85130000D03*
X144520000Y-83480000D03*
X144520000Y-84580000D03*
X144520000Y-85680000D03*
X145070000Y-84030000D03*
D18*
X145070000Y-84580000D03*
D17*
X145070000Y-85130000D03*
X145620000Y-83480000D03*
X145620000Y-84580000D03*
X145620000Y-85680000D03*
X146170000Y-84030000D03*
X146170000Y-85130000D03*
%TD*%
D14*
%TO.P,R1,1*%
%TO.N,3V3Buck*%
X124000000Y-78500000D03*
%TO.P,R1,2*%
%TO.N,Net-(U1-EN)*%
X124000000Y-80500000D03*
%TD*%
D19*
%TO.P,R6,1*%
%TO.N,Net-(U1-IO2)*%
X155500000Y-81500000D03*
%TO.P,R6,2*%
%TO.N,3V3Buck*%
X157500000Y-81500000D03*
%TD*%
D10*
%TO.P,SW2,1,1*%
%TO.N,GND*%
X123450000Y-107150000D03*
X123450000Y-100650000D03*
%TO.P,SW2,2,2*%
%TO.N,Net-(U1-IO9)*%
X127950000Y-107150000D03*
X127950000Y-100650000D03*
%TD*%
D20*
%TO.N,3V3Buck*%
X157400000Y-83200000D03*
%TO.N,GND*%
X119900000Y-94000000D03*
X125100000Y-108200000D03*
X161100000Y-108700000D03*
X155100000Y-65300000D03*
X156500000Y-78600000D03*
X126500000Y-80300000D03*
X126900000Y-95100000D03*
X158300000Y-99900000D03*
X129300000Y-74700000D03*
X122100000Y-99400000D03*
X130100000Y-94300000D03*
X119900000Y-99300000D03*
X129500000Y-77100000D03*
X165700000Y-80200000D03*
X126500000Y-83200000D03*
X165500000Y-72800000D03*
X165700000Y-86700000D03*
X133800000Y-90400000D03*
X161100000Y-89500000D03*
X141000000Y-88700000D03*
X126500000Y-77100000D03*
X159500000Y-107000000D03*
X150200000Y-103800000D03*
X129200000Y-70700000D03*
X159400000Y-67100000D03*
X132000000Y-81400000D03*
X143800000Y-96100000D03*
X126800000Y-68300000D03*
X165700000Y-99100000D03*
X138400000Y-81600000D03*
X137900000Y-89800000D03*
X145400000Y-94500000D03*
X130300000Y-86600000D03*
X145300000Y-99800000D03*
X119800000Y-87400000D03*
X154100000Y-92900000D03*
X140000000Y-106600000D03*
X129000000Y-80200000D03*
X147800000Y-65300000D03*
X161800000Y-65200000D03*
X159500000Y-95200000D03*
X132000000Y-84600000D03*
X161100000Y-93700000D03*
X159500000Y-87800000D03*
X148100000Y-84900000D03*
X149600000Y-78600000D03*
X133400000Y-103300000D03*
X155100000Y-109400000D03*
X126200000Y-110600000D03*
X126800000Y-74700000D03*
X142900000Y-86600000D03*
X136200000Y-98200000D03*
X120000000Y-105800000D03*
X124200000Y-65500000D03*
X162600000Y-95200000D03*
X129000000Y-83200000D03*
X137700000Y-86600000D03*
X140200000Y-84300000D03*
X158000000Y-85900000D03*
X162700000Y-87800000D03*
X119900000Y-80600000D03*
X122100000Y-105800000D03*
X122200000Y-101900000D03*
X126900000Y-87500000D03*
X165700000Y-92400000D03*
X145500000Y-109500000D03*
X133500000Y-109400000D03*
X137900000Y-78700000D03*
X129200000Y-68300000D03*
X140200000Y-65300000D03*
X149900000Y-89300000D03*
X143000000Y-80300000D03*
X121900000Y-108200000D03*
X124700000Y-101900000D03*
X124700000Y-99400000D03*
X154100000Y-96100000D03*
X120000000Y-72500000D03*
X162700000Y-107000000D03*
X132400000Y-65400000D03*
X146400000Y-78800000D03*
X165700000Y-104900000D03*
X126800000Y-70700000D03*
X124700000Y-105800000D03*
X145400000Y-93100000D03*
X148000000Y-82100000D03*
%TO.N,Net-(U1-EN)*%
X124000000Y-82000000D03*
X122000000Y-79000000D03*
X130400000Y-80000000D03*
%TO.N,/SCL*%
X129540000Y-91540000D03*
X125000000Y-90300000D03*
%TO.N,/SDA*%
X125000000Y-86100000D03*
X130020000Y-88520000D03*
%TO.N,Net-(U1-IO8)*%
X125000000Y-96000000D03*
X132509620Y-87909620D03*
%TO.N,Net-(U1-IO9)*%
X132700000Y-89700000D03*
X132750000Y-98250000D03*
%TD*%
D21*
%TO.N,3V3Buck*%
X122100000Y-94600000D02*
X122100000Y-92200000D01*
X135000000Y-93000000D02*
X130000000Y-98000000D01*
X122700000Y-92200000D02*
X122800000Y-92300000D01*
X122100000Y-92200000D02*
X122700000Y-92200000D01*
D22*
X157500000Y-83100000D02*
X157400000Y-83200000D01*
D21*
X124000000Y-78500000D02*
X126342500Y-78500000D01*
X126342500Y-78500000D02*
X126510000Y-78667500D01*
X127047500Y-78380000D02*
X126927500Y-78500000D01*
D22*
X157500000Y-81500000D02*
X157500000Y-83100000D01*
D21*
X135360000Y-78380000D02*
X127047500Y-78380000D01*
X125500000Y-98000000D02*
X122100000Y-94600000D01*
X139760000Y-93000000D02*
X139500000Y-93000000D01*
X130000000Y-98000000D02*
X125500000Y-98000000D01*
X139500000Y-93000000D02*
X135000000Y-93000000D01*
X122100000Y-92200000D02*
X122100000Y-80400000D01*
X122800000Y-92300000D02*
X123700000Y-92300000D01*
X141260000Y-94500000D02*
X139760000Y-93000000D01*
D22*
X139500000Y-93000000D02*
X140000000Y-93000000D01*
D21*
X122100000Y-80400000D02*
X124000000Y-78500000D01*
D22*
%TO.N,Net-(U1-EN)*%
X123500000Y-76000000D02*
X122000000Y-77500000D01*
X122000000Y-77500000D02*
X122000000Y-79000000D01*
X130400000Y-80000000D02*
X131875000Y-80000000D01*
X124000000Y-80500000D02*
X124000000Y-82000000D01*
X131625000Y-79875000D02*
X132000000Y-79875000D01*
X131875000Y-80000000D02*
X132000000Y-79875000D01*
X131505000Y-79880000D02*
X131500000Y-79875000D01*
X123500000Y-69500000D02*
X123500000Y-76000000D01*
X135355000Y-79875000D02*
X135360000Y-79880000D01*
X132000000Y-79875000D02*
X135355000Y-79875000D01*
%TO.N,/SCL*%
X128500000Y-92580000D02*
X129540000Y-91540000D01*
X129540000Y-91540000D02*
X131000000Y-90080000D01*
X134260000Y-83680000D02*
X135060000Y-82880000D01*
X131000000Y-90080000D02*
X131000000Y-88500000D01*
X123900000Y-90300000D02*
X123700000Y-90100000D01*
X125000000Y-90300000D02*
X123900000Y-90300000D01*
X135060000Y-82880000D02*
X135360000Y-82880000D01*
X134260000Y-85240000D02*
X134260000Y-83680000D01*
X131000000Y-88500000D02*
X134260000Y-85240000D01*
%TO.N,/5VBoost*%
X123700000Y-84000000D02*
X125500000Y-84000000D01*
D21*
X125750000Y-95450000D02*
X125700000Y-95500000D01*
D22*
X128500000Y-84960000D02*
X128500000Y-85000000D01*
X125500000Y-84000000D02*
X126850000Y-85350000D01*
D21*
X125700000Y-95500000D02*
X125700000Y-95639339D01*
X129250000Y-97000000D02*
X134250000Y-92000000D01*
D22*
X126850000Y-85350000D02*
X126850000Y-85450000D01*
X123700000Y-88100000D02*
X125750000Y-88100000D01*
D21*
X125750000Y-86550000D02*
X126850000Y-85450000D01*
X125700000Y-95639339D02*
X127000000Y-96939339D01*
X134250000Y-92000000D02*
X149000000Y-92000000D01*
X125750000Y-88100000D02*
X125750000Y-95450000D01*
X149000000Y-92000000D02*
X150460000Y-93460000D01*
X127000000Y-97000000D02*
X129250000Y-97000000D01*
X127000000Y-96939339D02*
X127000000Y-97000000D01*
X150500000Y-93460000D02*
X151540000Y-94500000D01*
X127340000Y-84960000D02*
X128500000Y-84960000D01*
X126850000Y-85450000D02*
X127340000Y-84960000D01*
X125750000Y-86550000D02*
X125750000Y-88100000D01*
D22*
X150460000Y-93460000D02*
X150500000Y-93460000D01*
%TO.N,/SDA*%
X133500000Y-83000000D02*
X135120000Y-81380000D01*
X133500000Y-85040000D02*
X133500000Y-83000000D01*
X125000000Y-86100000D02*
X123800000Y-86100000D01*
X123800000Y-86100000D02*
X123700000Y-86000000D01*
X130020000Y-88520000D02*
X133500000Y-85040000D01*
X128500000Y-90040000D02*
X130020000Y-88520000D01*
X135120000Y-81380000D02*
X135360000Y-81380000D01*
%TO.N,Net-(U1-IO8)*%
X123700000Y-94700000D02*
X125000000Y-96000000D01*
X123700000Y-94300000D02*
X123700000Y-94700000D01*
X133039240Y-87380000D02*
X135360000Y-87380000D01*
X132509620Y-87909620D02*
X133039240Y-87380000D01*
D23*
%TO.N,Net-(U1-IO2)*%
X155380000Y-81380000D02*
X155500000Y-81500000D01*
D22*
X152860000Y-81380000D02*
X155380000Y-81380000D01*
%TO.N,Net-(U1-IO9)*%
X131050000Y-100650000D02*
X127950000Y-100650000D01*
X132700000Y-89700000D02*
X133520000Y-88880000D01*
X132750000Y-98250000D02*
X132750000Y-98950000D01*
X132750000Y-98950000D02*
X131050000Y-100650000D01*
X133520000Y-88880000D02*
X135360000Y-88880000D01*
X127950000Y-107150000D02*
X127950000Y-100650000D01*
D21*
%TO.N,Net-(J2-Vin)*%
X156460000Y-101340000D02*
X159595000Y-104475000D01*
X156620000Y-94500000D02*
X156620000Y-101180000D01*
X156620000Y-101180000D02*
X156460000Y-101340000D01*
X156460000Y-101340000D02*
X153120000Y-98000000D01*
X138720000Y-94500000D02*
X138720000Y-96320000D01*
X140400000Y-98000000D02*
X153120000Y-98000000D01*
X156800000Y-94680000D02*
X156620000Y-94500000D01*
X138720000Y-96320000D02*
X140400000Y-98000000D01*
X159595000Y-104475000D02*
X161100000Y-104475000D01*
%TO.N,Net-(J4-load+)*%
X161100000Y-97775000D02*
X161100000Y-101935000D01*
D23*
%TO.N,/D+*%
X163093200Y-91125000D02*
X158106800Y-91125000D01*
X162545000Y-76105000D02*
X163323200Y-76105000D01*
X163323200Y-76105000D02*
X164325000Y-77106800D01*
X154510001Y-85355000D02*
X153985001Y-85880000D01*
X164325000Y-89893200D02*
X163093200Y-91125000D01*
X155375000Y-88393200D02*
X155375000Y-85793921D01*
X152860000Y-85880000D02*
X153160000Y-85880000D01*
X155375000Y-85793921D02*
X154936079Y-85355000D01*
X158106800Y-91125000D02*
X155375000Y-88393200D01*
X164325000Y-77106800D02*
X164325000Y-89893200D01*
X153985001Y-85880000D02*
X152860000Y-85880000D01*
X161500000Y-75060000D02*
X162545000Y-76105000D01*
X154936079Y-85355000D02*
X154510001Y-85355000D01*
%TO.N,/D-*%
X163875000Y-89706800D02*
X163875000Y-77293200D01*
X162906800Y-90675000D02*
X163875000Y-89706800D01*
X155825000Y-85607521D02*
X155825000Y-88206800D01*
X152860000Y-84380000D02*
X153160000Y-84380000D01*
X162545000Y-76555000D02*
X161500000Y-77600000D01*
X155825000Y-88206800D02*
X158293200Y-90675000D01*
X155122479Y-84905000D02*
X155825000Y-85607521D01*
X163875000Y-77293200D02*
X163136800Y-76555000D01*
X158293200Y-90675000D02*
X162906800Y-90675000D01*
X152860000Y-84380000D02*
X153985001Y-84380000D01*
X163136800Y-76555000D02*
X162545000Y-76555000D01*
X154510001Y-84905000D02*
X155122479Y-84905000D01*
X153985001Y-84380000D02*
X154510001Y-84905000D01*
%TD*%
%TA.AperFunction,Conductor*%
%TO.N,GND*%
G36*
X148704809Y-92770185D02*
G01*
X148725451Y-92786819D01*
X148888265Y-92949633D01*
X148921750Y-93010956D01*
X148916766Y-93080648D01*
X148874894Y-93136581D01*
X148811393Y-93160842D01*
X148764596Y-93164936D01*
X148764586Y-93164938D01*
X148536344Y-93226094D01*
X148536335Y-93226098D01*
X148322171Y-93325964D01*
X148322169Y-93325965D01*
X148128597Y-93461505D01*
X147961505Y-93628597D01*
X147825965Y-93822169D01*
X147825964Y-93822171D01*
X147726098Y-94036335D01*
X147726094Y-94036344D01*
X147664938Y-94264586D01*
X147664936Y-94264596D01*
X147644341Y-94499999D01*
X147644341Y-94500000D01*
X147664936Y-94735403D01*
X147664938Y-94735413D01*
X147726094Y-94963655D01*
X147726096Y-94963659D01*
X147726097Y-94963663D01*
X147806004Y-95135023D01*
X147825965Y-95177830D01*
X147825967Y-95177834D01*
X147912088Y-95300826D01*
X147961505Y-95371401D01*
X148128599Y-95538495D01*
X148225384Y-95606265D01*
X148322165Y-95674032D01*
X148322167Y-95674033D01*
X148322170Y-95674035D01*
X148536337Y-95773903D01*
X148764592Y-95835063D01*
X148941034Y-95850500D01*
X148999999Y-95855659D01*
X149000000Y-95855659D01*
X149000001Y-95855659D01*
X149058966Y-95850500D01*
X149235408Y-95835063D01*
X149463663Y-95773903D01*
X149677830Y-95674035D01*
X149871401Y-95538495D01*
X150038495Y-95371401D01*
X150168425Y-95185842D01*
X150223002Y-95142217D01*
X150292500Y-95135023D01*
X150354855Y-95166546D01*
X150371575Y-95185842D01*
X150501500Y-95371395D01*
X150501505Y-95371401D01*
X150668599Y-95538495D01*
X150765384Y-95606265D01*
X150862165Y-95674032D01*
X150862167Y-95674033D01*
X150862170Y-95674035D01*
X151076337Y-95773903D01*
X151304592Y-95835063D01*
X151481034Y-95850500D01*
X151539999Y-95855659D01*
X151540000Y-95855659D01*
X151540001Y-95855659D01*
X151598966Y-95850500D01*
X151775408Y-95835063D01*
X152003663Y-95773903D01*
X152217830Y-95674035D01*
X152411401Y-95538495D01*
X152578495Y-95371401D01*
X152708730Y-95185405D01*
X152763307Y-95141781D01*
X152832805Y-95134587D01*
X152895160Y-95166110D01*
X152911879Y-95185405D01*
X153041890Y-95371078D01*
X153208917Y-95538105D01*
X153402421Y-95673600D01*
X153616507Y-95773429D01*
X153616516Y-95773433D01*
X153830000Y-95830634D01*
X153830000Y-94933012D01*
X153887007Y-94965925D01*
X154014174Y-95000000D01*
X154145826Y-95000000D01*
X154272993Y-94965925D01*
X154330000Y-94933012D01*
X154330000Y-95830633D01*
X154543483Y-95773433D01*
X154543492Y-95773429D01*
X154757578Y-95673600D01*
X154951078Y-95538108D01*
X155073133Y-95416053D01*
X155134456Y-95382568D01*
X155204148Y-95387552D01*
X155260082Y-95429423D01*
X155276997Y-95460401D01*
X155326202Y-95592328D01*
X155326206Y-95592335D01*
X155412452Y-95707544D01*
X155412455Y-95707547D01*
X155527664Y-95793793D01*
X155527671Y-95793797D01*
X155537809Y-95797578D01*
X155662517Y-95844091D01*
X155722127Y-95850500D01*
X155745497Y-95850499D01*
X155812536Y-95870181D01*
X155858292Y-95922983D01*
X155869500Y-95974499D01*
X155869500Y-99388769D01*
X155849815Y-99455808D01*
X155797011Y-99501563D01*
X155727853Y-99511507D01*
X155664297Y-99482482D01*
X155657819Y-99476450D01*
X153598421Y-97417052D01*
X153598414Y-97417046D01*
X153524729Y-97367812D01*
X153524729Y-97367813D01*
X153475491Y-97334913D01*
X153338917Y-97278343D01*
X153338907Y-97278340D01*
X153193920Y-97249500D01*
X153193918Y-97249500D01*
X140762230Y-97249500D01*
X140695191Y-97229815D01*
X140674549Y-97213181D01*
X139506819Y-96045451D01*
X139473334Y-95984128D01*
X139470500Y-95957770D01*
X139470500Y-95687700D01*
X139490185Y-95620661D01*
X139523375Y-95586126D01*
X139591401Y-95538495D01*
X139758495Y-95371401D01*
X139888425Y-95185842D01*
X139943002Y-95142217D01*
X140012500Y-95135023D01*
X140074855Y-95166546D01*
X140091575Y-95185842D01*
X140221500Y-95371395D01*
X140221505Y-95371401D01*
X140388599Y-95538495D01*
X140485384Y-95606265D01*
X140582165Y-95674032D01*
X140582167Y-95674033D01*
X140582170Y-95674035D01*
X140796337Y-95773903D01*
X141024592Y-95835063D01*
X141201034Y-95850500D01*
X141259999Y-95855659D01*
X141260000Y-95855659D01*
X141260001Y-95855659D01*
X141318966Y-95850500D01*
X141495408Y-95835063D01*
X141723663Y-95773903D01*
X141937830Y-95674035D01*
X142131401Y-95538495D01*
X142253717Y-95416178D01*
X142315036Y-95382696D01*
X142384728Y-95387680D01*
X142440662Y-95429551D01*
X142457577Y-95460528D01*
X142506646Y-95592088D01*
X142506649Y-95592093D01*
X142592809Y-95707187D01*
X142592812Y-95707190D01*
X142707906Y-95793350D01*
X142707913Y-95793354D01*
X142842620Y-95843596D01*
X142842627Y-95843598D01*
X142902155Y-95849999D01*
X142902172Y-95850000D01*
X143550000Y-95850000D01*
X143550000Y-94933012D01*
X143607007Y-94965925D01*
X143734174Y-95000000D01*
X143865826Y-95000000D01*
X143992993Y-94965925D01*
X144050000Y-94933012D01*
X144050000Y-95850000D01*
X144697828Y-95850000D01*
X144697844Y-95849999D01*
X144757372Y-95843598D01*
X144757379Y-95843596D01*
X144892086Y-95793354D01*
X144892093Y-95793350D01*
X145007187Y-95707190D01*
X145007190Y-95707187D01*
X145093350Y-95592093D01*
X145093354Y-95592086D01*
X145143596Y-95457379D01*
X145143598Y-95457372D01*
X145149999Y-95397844D01*
X145150000Y-95397827D01*
X145150000Y-94750000D01*
X144233012Y-94750000D01*
X144265925Y-94692993D01*
X144300000Y-94565826D01*
X144300000Y-94434174D01*
X144265925Y-94307007D01*
X144233012Y-94250000D01*
X145150000Y-94250000D01*
X145150000Y-93602172D01*
X145149999Y-93602155D01*
X145143598Y-93542627D01*
X145143596Y-93542620D01*
X145093354Y-93407913D01*
X145093350Y-93407906D01*
X145007190Y-93292812D01*
X145007187Y-93292809D01*
X144892093Y-93206649D01*
X144892086Y-93206645D01*
X144757379Y-93156403D01*
X144757372Y-93156401D01*
X144697844Y-93150000D01*
X144050000Y-93150000D01*
X144050000Y-94066988D01*
X143992993Y-94034075D01*
X143865826Y-94000000D01*
X143734174Y-94000000D01*
X143607007Y-94034075D01*
X143550000Y-94066988D01*
X143550000Y-93150000D01*
X142902155Y-93150000D01*
X142842627Y-93156401D01*
X142842620Y-93156403D01*
X142707913Y-93206645D01*
X142707906Y-93206649D01*
X142592812Y-93292809D01*
X142592809Y-93292812D01*
X142506649Y-93407906D01*
X142506645Y-93407913D01*
X142457578Y-93539470D01*
X142415707Y-93595404D01*
X142350242Y-93619821D01*
X142281969Y-93604969D01*
X142253715Y-93583819D01*
X142195418Y-93525522D01*
X142131401Y-93461505D01*
X142131397Y-93461502D01*
X142131396Y-93461501D01*
X141937834Y-93325967D01*
X141937830Y-93325965D01*
X141866727Y-93292809D01*
X141723663Y-93226097D01*
X141723659Y-93226096D01*
X141723655Y-93226094D01*
X141495413Y-93164938D01*
X141495403Y-93164936D01*
X141260001Y-93144341D01*
X141259998Y-93144341D01*
X141046985Y-93162977D01*
X140978485Y-93149210D01*
X140948500Y-93127133D01*
X140783547Y-92962179D01*
X140750064Y-92900858D01*
X140755048Y-92831166D01*
X140796920Y-92775233D01*
X140862384Y-92750816D01*
X140871230Y-92750500D01*
X148637770Y-92750500D01*
X148704809Y-92770185D01*
G37*
%TD.AperFunction*%
%TA.AperFunction,Conductor*%
G36*
X127291084Y-86172795D02*
G01*
X127322062Y-86189711D01*
X127407664Y-86253793D01*
X127407671Y-86253797D01*
X127407674Y-86253798D01*
X127539598Y-86303002D01*
X127595531Y-86344873D01*
X127619949Y-86410337D01*
X127605098Y-86478610D01*
X127583947Y-86506865D01*
X127461886Y-86628926D01*
X127326400Y-86822420D01*
X127326399Y-86822422D01*
X127226570Y-87036507D01*
X127226567Y-87036513D01*
X127169364Y-87249999D01*
X127169364Y-87250000D01*
X128066988Y-87250000D01*
X128034075Y-87307007D01*
X128000000Y-87434174D01*
X128000000Y-87565826D01*
X128034075Y-87692993D01*
X128066988Y-87750000D01*
X127169364Y-87750000D01*
X127226567Y-87963486D01*
X127226570Y-87963492D01*
X127326399Y-88177578D01*
X127461894Y-88371082D01*
X127628917Y-88538105D01*
X127814595Y-88668119D01*
X127858219Y-88722696D01*
X127865412Y-88792195D01*
X127833890Y-88854549D01*
X127814595Y-88871269D01*
X127628594Y-89001508D01*
X127461505Y-89168597D01*
X127325965Y-89362169D01*
X127325964Y-89362171D01*
X127226098Y-89576335D01*
X127226094Y-89576344D01*
X127164938Y-89804586D01*
X127164936Y-89804596D01*
X127144341Y-90039999D01*
X127144341Y-90040000D01*
X127164936Y-90275403D01*
X127164938Y-90275413D01*
X127226094Y-90503655D01*
X127226096Y-90503659D01*
X127226097Y-90503663D01*
X127226984Y-90505565D01*
X127325965Y-90717830D01*
X127325967Y-90717834D01*
X127461501Y-90911395D01*
X127461506Y-90911402D01*
X127628597Y-91078493D01*
X127628603Y-91078498D01*
X127814158Y-91208425D01*
X127857783Y-91263002D01*
X127864977Y-91332500D01*
X127833454Y-91394855D01*
X127814158Y-91411575D01*
X127628597Y-91541505D01*
X127461505Y-91708597D01*
X127325965Y-91902169D01*
X127325964Y-91902171D01*
X127226098Y-92116335D01*
X127226094Y-92116344D01*
X127164938Y-92344586D01*
X127164936Y-92344596D01*
X127144341Y-92579999D01*
X127144341Y-92580000D01*
X127164936Y-92815403D01*
X127164938Y-92815413D01*
X127226094Y-93043655D01*
X127226096Y-93043659D01*
X127226097Y-93043663D01*
X127301891Y-93206204D01*
X127325965Y-93257830D01*
X127325967Y-93257834D01*
X127461501Y-93451395D01*
X127461506Y-93451402D01*
X127628597Y-93618493D01*
X127628603Y-93618498D01*
X127814594Y-93748730D01*
X127858219Y-93803307D01*
X127865413Y-93872805D01*
X127833890Y-93935160D01*
X127814595Y-93951880D01*
X127628922Y-94081890D01*
X127628920Y-94081891D01*
X127461891Y-94248920D01*
X127461886Y-94248926D01*
X127326400Y-94442420D01*
X127326399Y-94442422D01*
X127226570Y-94656507D01*
X127226567Y-94656513D01*
X127169364Y-94869999D01*
X127169364Y-94870000D01*
X128066988Y-94870000D01*
X128034075Y-94927007D01*
X128000000Y-95054174D01*
X128000000Y-95185826D01*
X128034075Y-95312993D01*
X128066988Y-95370000D01*
X127169364Y-95370000D01*
X127226567Y-95583486D01*
X127226570Y-95583492D01*
X127326399Y-95797578D01*
X127463582Y-95993493D01*
X127485909Y-96059699D01*
X127468899Y-96127467D01*
X127417951Y-96175280D01*
X127349242Y-96187958D01*
X127284585Y-96161477D01*
X127274326Y-96152298D01*
X126919606Y-95797578D01*
X126536819Y-95414790D01*
X126503334Y-95353467D01*
X126500500Y-95327109D01*
X126500500Y-86912229D01*
X126520185Y-86845190D01*
X126536815Y-86824552D01*
X127160072Y-86201294D01*
X127221393Y-86167811D01*
X127291084Y-86172795D01*
G37*
%TD.AperFunction*%
%TA.AperFunction,Conductor*%
G36*
X125113991Y-79349888D02*
G01*
X125169925Y-79391758D01*
X125176193Y-79400967D01*
X125225187Y-79480399D01*
X125253534Y-79526358D01*
X125267288Y-79548656D01*
X125391344Y-79672712D01*
X125540666Y-79764814D01*
X125707203Y-79819999D01*
X125809991Y-79830500D01*
X127210008Y-79830499D01*
X127312797Y-79819999D01*
X127479334Y-79764814D01*
X127628656Y-79672712D01*
X127663568Y-79637800D01*
X127724890Y-79604314D01*
X127794582Y-79609298D01*
X127838931Y-79637799D01*
X127881344Y-79680212D01*
X128030666Y-79772314D01*
X128197203Y-79827499D01*
X128299991Y-79838000D01*
X129473931Y-79837999D01*
X129540970Y-79857684D01*
X129586725Y-79910487D01*
X129597152Y-79975878D01*
X129594435Y-79999999D01*
X129594435Y-80000003D01*
X129614630Y-80179249D01*
X129614631Y-80179254D01*
X129674211Y-80349523D01*
X129735792Y-80447528D01*
X129754792Y-80514765D01*
X129734424Y-80581600D01*
X129681156Y-80626814D01*
X129630798Y-80637500D01*
X129250000Y-80637500D01*
X129250000Y-81550000D01*
X130399999Y-81550000D01*
X130399999Y-81337528D01*
X130399998Y-81337513D01*
X130389505Y-81234802D01*
X130334358Y-81068380D01*
X130334356Y-81068375D01*
X130288889Y-80994662D01*
X130270449Y-80927269D01*
X130291371Y-80860606D01*
X130345013Y-80815836D01*
X130394428Y-80805565D01*
X130400004Y-80805565D01*
X130579249Y-80785369D01*
X130579250Y-80785368D01*
X130579255Y-80785368D01*
X130659239Y-80757379D01*
X130729013Y-80753817D01*
X130787872Y-80786740D01*
X130881344Y-80880212D01*
X131030666Y-80972314D01*
X131197203Y-81027499D01*
X131299991Y-81038000D01*
X132700008Y-81037999D01*
X132802797Y-81027499D01*
X132969334Y-80972314D01*
X133118656Y-80880212D01*
X133242712Y-80756156D01*
X133334814Y-80606834D01*
X133334814Y-80606831D01*
X133334817Y-80606828D01*
X133337869Y-80600284D01*
X133339987Y-80601271D01*
X133373372Y-80553052D01*
X133437887Y-80526228D01*
X133451307Y-80525500D01*
X134048096Y-80525500D01*
X134115135Y-80545185D01*
X134160890Y-80597989D01*
X134170834Y-80667147D01*
X134164278Y-80692833D01*
X134115908Y-80822517D01*
X134109706Y-80880210D01*
X134109501Y-80882123D01*
X134109500Y-80882135D01*
X134109500Y-81419190D01*
X134089815Y-81486229D01*
X134073181Y-81506871D01*
X133436595Y-82143456D01*
X133375272Y-82176941D01*
X133305580Y-82171957D01*
X133249647Y-82130085D01*
X133243376Y-82120872D01*
X133242319Y-82119159D01*
X133242316Y-82119155D01*
X133118345Y-81995184D01*
X132969124Y-81903143D01*
X132969119Y-81903141D01*
X132802697Y-81847994D01*
X132802690Y-81847993D01*
X132699986Y-81837500D01*
X132250000Y-81837500D01*
X132250000Y-84162499D01*
X132699972Y-84162499D01*
X132699981Y-84162498D01*
X132712896Y-84161179D01*
X132781589Y-84173948D01*
X132832474Y-84221827D01*
X132849500Y-84284537D01*
X132849500Y-84719191D01*
X132829815Y-84786230D01*
X132813181Y-84806872D01*
X129921775Y-87698277D01*
X129860452Y-87731762D01*
X129847988Y-87733815D01*
X129840752Y-87734630D01*
X129840740Y-87734633D01*
X129821560Y-87741344D01*
X129816712Y-87743041D01*
X129775759Y-87750000D01*
X128933012Y-87750000D01*
X128965925Y-87692993D01*
X129000000Y-87565826D01*
X129000000Y-87434174D01*
X128965925Y-87307007D01*
X128933012Y-87250000D01*
X129830636Y-87250000D01*
X129830635Y-87249999D01*
X129773432Y-87036513D01*
X129773429Y-87036507D01*
X129673600Y-86822422D01*
X129673599Y-86822420D01*
X129538113Y-86628926D01*
X129538108Y-86628920D01*
X129416053Y-86506865D01*
X129382568Y-86445542D01*
X129387552Y-86375850D01*
X129429424Y-86319917D01*
X129460400Y-86303002D01*
X129592331Y-86253796D01*
X129707546Y-86167546D01*
X129793796Y-86052331D01*
X129844091Y-85917483D01*
X129850500Y-85857873D01*
X129850499Y-84062128D01*
X129844091Y-84002517D01*
X129837695Y-83985369D01*
X129793797Y-83867671D01*
X129793793Y-83867664D01*
X129707547Y-83752455D01*
X129707544Y-83752452D01*
X129592335Y-83666206D01*
X129592328Y-83666202D01*
X129457482Y-83615908D01*
X129457483Y-83615908D01*
X129397883Y-83609501D01*
X129397881Y-83609500D01*
X129397873Y-83609500D01*
X129397864Y-83609500D01*
X127602129Y-83609500D01*
X127602123Y-83609501D01*
X127542516Y-83615908D01*
X127407671Y-83666202D01*
X127407664Y-83666206D01*
X127292455Y-83752452D01*
X127292452Y-83752455D01*
X127206206Y-83867664D01*
X127206202Y-83867671D01*
X127155908Y-84002517D01*
X127152685Y-84032500D01*
X127149501Y-84062123D01*
X127149500Y-84062135D01*
X127149500Y-84143717D01*
X127129815Y-84210756D01*
X127077011Y-84256511D01*
X127072955Y-84258277D01*
X127041082Y-84271480D01*
X126984506Y-84294915D01*
X126925265Y-84334499D01*
X126925262Y-84334501D01*
X126907475Y-84346385D01*
X126840797Y-84367260D01*
X126773417Y-84348773D01*
X126750907Y-84330961D01*
X125914674Y-83494727D01*
X125914673Y-83494726D01*
X125866422Y-83462486D01*
X130600001Y-83462486D01*
X130610494Y-83565197D01*
X130665641Y-83731619D01*
X130665643Y-83731624D01*
X130757684Y-83880845D01*
X130881654Y-84004815D01*
X131030875Y-84096856D01*
X131030880Y-84096858D01*
X131197302Y-84152005D01*
X131197309Y-84152006D01*
X131300019Y-84162499D01*
X131749999Y-84162499D01*
X131750000Y-84162498D01*
X131750000Y-83250000D01*
X130600001Y-83250000D01*
X130600001Y-83462486D01*
X125866422Y-83462486D01*
X125808127Y-83423535D01*
X125701211Y-83379249D01*
X125689744Y-83374499D01*
X125689738Y-83374497D01*
X125564071Y-83349500D01*
X125564069Y-83349500D01*
X124915638Y-83349500D01*
X124848599Y-83329815D01*
X124810099Y-83290597D01*
X124785059Y-83250000D01*
X124742712Y-83181344D01*
X124618656Y-83057288D01*
X124485907Y-82975408D01*
X124469336Y-82965187D01*
X124469331Y-82965185D01*
X124461222Y-82962498D01*
X124391147Y-82939277D01*
X124333703Y-82899505D01*
X124306880Y-82834989D01*
X124319195Y-82766214D01*
X124364178Y-82716579D01*
X124502262Y-82629816D01*
X124629816Y-82502262D01*
X124725789Y-82349522D01*
X124758869Y-82254986D01*
X125110001Y-82254986D01*
X125120494Y-82357697D01*
X125175641Y-82524119D01*
X125175643Y-82524124D01*
X125267684Y-82673345D01*
X125391654Y-82797315D01*
X125540875Y-82889356D01*
X125540880Y-82889358D01*
X125707302Y-82944505D01*
X125707309Y-82944506D01*
X125810019Y-82954999D01*
X126259999Y-82954999D01*
X126760000Y-82954999D01*
X127209972Y-82954999D01*
X127209986Y-82954998D01*
X127312697Y-82944505D01*
X127479119Y-82889358D01*
X127479124Y-82889356D01*
X127628345Y-82797315D01*
X127663569Y-82762092D01*
X127724892Y-82728607D01*
X127794584Y-82733591D01*
X127838931Y-82762092D01*
X127881654Y-82804815D01*
X128030875Y-82896856D01*
X128030880Y-82896858D01*
X128197302Y-82952005D01*
X128197309Y-82952006D01*
X128300019Y-82962499D01*
X128749999Y-82962499D01*
X129250000Y-82962499D01*
X129699972Y-82962499D01*
X129699986Y-82962498D01*
X129802697Y-82952005D01*
X129969119Y-82896858D01*
X129969124Y-82896856D01*
X130118345Y-82804815D01*
X130242315Y-82680845D01*
X130334356Y-82531624D01*
X130334359Y-82531617D01*
X130363140Y-82444762D01*
X130381783Y-82417835D01*
X130584695Y-82417835D01*
X130587404Y-82420350D01*
X130604773Y-82488027D01*
X130604204Y-82496367D01*
X130600000Y-82537511D01*
X130600000Y-82750000D01*
X131750000Y-82750000D01*
X131750000Y-81837500D01*
X131300028Y-81837500D01*
X131300012Y-81837501D01*
X131197302Y-81847994D01*
X131030880Y-81903141D01*
X131030875Y-81903143D01*
X130881654Y-81995184D01*
X130757684Y-82119154D01*
X130665643Y-82268375D01*
X130665642Y-82268378D01*
X130636859Y-82355239D01*
X130597086Y-82412684D01*
X130584695Y-82417835D01*
X130381783Y-82417835D01*
X130402912Y-82387316D01*
X130415304Y-82382163D01*
X130412594Y-82379647D01*
X130395226Y-82311971D01*
X130395795Y-82303629D01*
X130399999Y-82262481D01*
X130400000Y-82262473D01*
X130400000Y-82050000D01*
X129250000Y-82050000D01*
X129250000Y-82962499D01*
X128749999Y-82962499D01*
X128750000Y-82962498D01*
X128750000Y-82050000D01*
X127528862Y-82050000D01*
X127503320Y-82042500D01*
X126760000Y-82042500D01*
X126760000Y-82954999D01*
X126259999Y-82954999D01*
X126260000Y-82954998D01*
X126260000Y-82042500D01*
X125110001Y-82042500D01*
X125110001Y-82254986D01*
X124758869Y-82254986D01*
X124785368Y-82179255D01*
X124785629Y-82176941D01*
X124805565Y-82000003D01*
X124805565Y-81999996D01*
X124785369Y-81820750D01*
X124785367Y-81820740D01*
X124743644Y-81701505D01*
X124733169Y-81671571D01*
X124729607Y-81601795D01*
X124764336Y-81541167D01*
X124785107Y-81525085D01*
X124918656Y-81442712D01*
X124918657Y-81442710D01*
X124920904Y-81441325D01*
X124988296Y-81422885D01*
X125054960Y-81443808D01*
X125099729Y-81497450D01*
X125108854Y-81541354D01*
X125110000Y-81542500D01*
X126260000Y-81542500D01*
X126760000Y-81542500D01*
X127981138Y-81542500D01*
X128006680Y-81550000D01*
X128750000Y-81550000D01*
X128750000Y-80637500D01*
X128300028Y-80637500D01*
X128300012Y-80637501D01*
X128197302Y-80647994D01*
X128030880Y-80703141D01*
X128030875Y-80703143D01*
X127881654Y-80795184D01*
X127846428Y-80830409D01*
X127785104Y-80863893D01*
X127715413Y-80858907D01*
X127671068Y-80830407D01*
X127628345Y-80787684D01*
X127479124Y-80695643D01*
X127479119Y-80695641D01*
X127312697Y-80640494D01*
X127312690Y-80640493D01*
X127209986Y-80630000D01*
X126760000Y-80630000D01*
X126760000Y-81542500D01*
X126260000Y-81542500D01*
X126260000Y-80630000D01*
X125810028Y-80630000D01*
X125810012Y-80630001D01*
X125707302Y-80640494D01*
X125540880Y-80695641D01*
X125540871Y-80695645D01*
X125389595Y-80788953D01*
X125322203Y-80807393D01*
X125255539Y-80786470D01*
X125210770Y-80732828D01*
X125200499Y-80683417D01*
X125200499Y-80099992D01*
X125189999Y-79997203D01*
X125134814Y-79830666D01*
X125042712Y-79681344D01*
X124949049Y-79587681D01*
X124915564Y-79526358D01*
X124920548Y-79456666D01*
X124949045Y-79412322D01*
X124982980Y-79378387D01*
X125044299Y-79344904D01*
X125113991Y-79349888D01*
G37*
%TD.AperFunction*%
%TA.AperFunction,Conductor*%
G36*
X164904418Y-64600816D02*
G01*
X165104561Y-64615130D01*
X165122063Y-64617647D01*
X165313797Y-64659355D01*
X165330755Y-64664334D01*
X165514609Y-64732909D01*
X165530701Y-64740259D01*
X165702904Y-64834288D01*
X165717784Y-64843849D01*
X165874867Y-64961441D01*
X165888237Y-64973027D01*
X166026972Y-65111762D01*
X166038558Y-65125132D01*
X166156146Y-65282210D01*
X166165711Y-65297095D01*
X166259740Y-65469298D01*
X166267090Y-65485390D01*
X166335662Y-65669236D01*
X166340646Y-65686212D01*
X166382351Y-65877931D01*
X166384869Y-65895442D01*
X166399184Y-66095580D01*
X166399500Y-66104427D01*
X166399500Y-110895572D01*
X166399184Y-110904419D01*
X166384869Y-111104557D01*
X166382351Y-111122068D01*
X166340646Y-111313787D01*
X166335662Y-111330763D01*
X166267090Y-111514609D01*
X166259740Y-111530701D01*
X166165711Y-111702904D01*
X166156146Y-111717789D01*
X166038558Y-111874867D01*
X166026972Y-111888237D01*
X165888237Y-112026972D01*
X165874867Y-112038558D01*
X165717789Y-112156146D01*
X165702904Y-112165711D01*
X165530701Y-112259740D01*
X165514609Y-112267090D01*
X165330763Y-112335662D01*
X165313787Y-112340646D01*
X165122068Y-112382351D01*
X165104557Y-112384869D01*
X164923779Y-112397799D01*
X164904417Y-112399184D01*
X164895572Y-112399500D01*
X120304428Y-112399500D01*
X120295582Y-112399184D01*
X120273622Y-112397613D01*
X120095442Y-112384869D01*
X120077931Y-112382351D01*
X119886212Y-112340646D01*
X119869236Y-112335662D01*
X119685390Y-112267090D01*
X119669298Y-112259740D01*
X119497095Y-112165711D01*
X119482210Y-112156146D01*
X119325132Y-112038558D01*
X119311762Y-112026972D01*
X119173027Y-111888237D01*
X119161441Y-111874867D01*
X119053072Y-111730104D01*
X119043849Y-111717784D01*
X119034288Y-111702904D01*
X118940259Y-111530701D01*
X118932909Y-111514609D01*
X118864334Y-111330755D01*
X118859355Y-111313797D01*
X118817647Y-111122063D01*
X118815130Y-111104556D01*
X118800816Y-110904418D01*
X118800500Y-110895572D01*
X118800500Y-110593713D01*
X119149500Y-110593713D01*
X119149500Y-110806287D01*
X119159534Y-110869644D01*
X119182753Y-111016239D01*
X119248444Y-111218414D01*
X119344951Y-111407820D01*
X119469890Y-111579786D01*
X119620213Y-111730109D01*
X119792179Y-111855048D01*
X119792181Y-111855049D01*
X119792184Y-111855051D01*
X119981588Y-111951557D01*
X120183757Y-112017246D01*
X120393713Y-112050500D01*
X120393714Y-112050500D01*
X120606286Y-112050500D01*
X120606287Y-112050500D01*
X120816243Y-112017246D01*
X121018412Y-111951557D01*
X121207816Y-111855051D01*
X121229789Y-111839086D01*
X121379786Y-111730109D01*
X121379788Y-111730106D01*
X121379792Y-111730104D01*
X121530104Y-111579792D01*
X121530106Y-111579788D01*
X121530109Y-111579786D01*
X121655048Y-111407820D01*
X121655047Y-111407820D01*
X121655051Y-111407816D01*
X121751557Y-111218412D01*
X121817246Y-111016243D01*
X121850500Y-110806287D01*
X121850500Y-110593713D01*
X163349500Y-110593713D01*
X163349500Y-110806287D01*
X163359534Y-110869644D01*
X163382753Y-111016239D01*
X163448444Y-111218414D01*
X163544951Y-111407820D01*
X163669890Y-111579786D01*
X163820213Y-111730109D01*
X163992179Y-111855048D01*
X163992181Y-111855049D01*
X163992184Y-111855051D01*
X164181588Y-111951557D01*
X164383757Y-112017246D01*
X164593713Y-112050500D01*
X164593714Y-112050500D01*
X164806286Y-112050500D01*
X164806287Y-112050500D01*
X165016243Y-112017246D01*
X165218412Y-111951557D01*
X165407816Y-111855051D01*
X165429789Y-111839086D01*
X165579786Y-111730109D01*
X165579788Y-111730106D01*
X165579792Y-111730104D01*
X165730104Y-111579792D01*
X165730106Y-111579788D01*
X165730109Y-111579786D01*
X165855048Y-111407820D01*
X165855047Y-111407820D01*
X165855051Y-111407816D01*
X165951557Y-111218412D01*
X166017246Y-111016243D01*
X166050500Y-110806287D01*
X166050500Y-110593713D01*
X166017246Y-110383757D01*
X165951557Y-110181588D01*
X165855051Y-109992184D01*
X165855049Y-109992181D01*
X165855048Y-109992179D01*
X165730109Y-109820213D01*
X165579786Y-109669890D01*
X165407820Y-109544951D01*
X165218414Y-109448444D01*
X165218413Y-109448443D01*
X165218412Y-109448443D01*
X165016243Y-109382754D01*
X165016241Y-109382753D01*
X165016240Y-109382753D01*
X164854957Y-109357208D01*
X164806287Y-109349500D01*
X164593713Y-109349500D01*
X164545042Y-109357208D01*
X164383760Y-109382753D01*
X164181585Y-109448444D01*
X163992179Y-109544951D01*
X163820213Y-109669890D01*
X163669890Y-109820213D01*
X163544951Y-109992179D01*
X163448444Y-110181585D01*
X163382753Y-110383760D01*
X163349500Y-110593713D01*
X121850500Y-110593713D01*
X121817246Y-110383757D01*
X121751557Y-110181588D01*
X121655051Y-109992184D01*
X121655049Y-109992181D01*
X121655048Y-109992179D01*
X121530109Y-109820213D01*
X121379786Y-109669890D01*
X121207820Y-109544951D01*
X121018414Y-109448444D01*
X121018413Y-109448443D01*
X121018412Y-109448443D01*
X120816243Y-109382754D01*
X120816241Y-109382753D01*
X120816240Y-109382753D01*
X120654957Y-109357208D01*
X120606287Y-109349500D01*
X120393713Y-109349500D01*
X120345042Y-109357208D01*
X120183760Y-109382753D01*
X119981585Y-109448444D01*
X119792179Y-109544951D01*
X119620213Y-109669890D01*
X119469890Y-109820213D01*
X119344951Y-109992179D01*
X119248444Y-110181585D01*
X119182753Y-110383760D01*
X119149500Y-110593713D01*
X118800500Y-110593713D01*
X118800500Y-107149994D01*
X121944859Y-107149994D01*
X121944859Y-107150005D01*
X121965385Y-107397729D01*
X121965387Y-107397738D01*
X122026412Y-107638717D01*
X122126267Y-107866367D01*
X122226562Y-108019881D01*
X122926212Y-107320233D01*
X122937482Y-107362292D01*
X123009890Y-107487708D01*
X123112292Y-107590110D01*
X123237708Y-107662518D01*
X123279766Y-107673787D01*
X122579943Y-108373609D01*
X122626768Y-108410055D01*
X122626771Y-108410057D01*
X122845385Y-108528364D01*
X122845396Y-108528369D01*
X123080506Y-108609083D01*
X123325707Y-108650000D01*
X123574293Y-108650000D01*
X123819493Y-108609083D01*
X124054603Y-108528369D01*
X124054614Y-108528364D01*
X124273230Y-108410056D01*
X124273236Y-108410051D01*
X124320055Y-108373610D01*
X124320056Y-108373609D01*
X123620233Y-107673787D01*
X123662292Y-107662518D01*
X123787708Y-107590110D01*
X123890110Y-107487708D01*
X123962518Y-107362292D01*
X123973787Y-107320234D01*
X124673435Y-108019882D01*
X124773733Y-107866364D01*
X124873587Y-107638717D01*
X124934612Y-107397738D01*
X124934614Y-107397729D01*
X124955141Y-107150005D01*
X124955141Y-107149994D01*
X124934614Y-106902270D01*
X124934612Y-106902261D01*
X124873587Y-106661282D01*
X124773732Y-106433632D01*
X124673435Y-106280116D01*
X123973787Y-106979765D01*
X123962518Y-106937708D01*
X123890110Y-106812292D01*
X123787708Y-106709890D01*
X123662292Y-106637482D01*
X123620233Y-106626212D01*
X124320055Y-105926389D01*
X124320055Y-105926388D01*
X124273236Y-105889947D01*
X124273231Y-105889944D01*
X124054614Y-105771635D01*
X124054603Y-105771630D01*
X123819493Y-105690916D01*
X123574293Y-105650000D01*
X123325707Y-105650000D01*
X123080506Y-105690916D01*
X122845396Y-105771630D01*
X122845385Y-105771635D01*
X122626770Y-105889943D01*
X122579943Y-105926389D01*
X123279766Y-106626212D01*
X123237708Y-106637482D01*
X123112292Y-106709890D01*
X123009890Y-106812292D01*
X122937482Y-106937708D01*
X122926212Y-106979766D01*
X122226563Y-106280117D01*
X122126267Y-106433633D01*
X122126265Y-106433637D01*
X122026412Y-106661282D01*
X121965387Y-106902261D01*
X121965385Y-106902270D01*
X121944859Y-107149994D01*
X118800500Y-107149994D01*
X118800500Y-100649994D01*
X121944859Y-100649994D01*
X121944859Y-100650005D01*
X121965385Y-100897729D01*
X121965387Y-100897738D01*
X122026412Y-101138717D01*
X122126267Y-101366367D01*
X122226562Y-101519881D01*
X122926212Y-100820233D01*
X122937482Y-100862292D01*
X123009890Y-100987708D01*
X123112292Y-101090110D01*
X123237708Y-101162518D01*
X123279766Y-101173787D01*
X122579943Y-101873609D01*
X122626768Y-101910055D01*
X122626771Y-101910057D01*
X122845385Y-102028364D01*
X122845396Y-102028369D01*
X123080506Y-102109083D01*
X123325707Y-102150000D01*
X123574293Y-102150000D01*
X123819493Y-102109083D01*
X124054603Y-102028369D01*
X124054614Y-102028364D01*
X124273230Y-101910056D01*
X124273236Y-101910051D01*
X124320055Y-101873610D01*
X124320056Y-101873609D01*
X123620233Y-101173787D01*
X123662292Y-101162518D01*
X123787708Y-101090110D01*
X123890110Y-100987708D01*
X123962518Y-100862292D01*
X123973787Y-100820234D01*
X124673435Y-101519882D01*
X124773733Y-101366364D01*
X124873587Y-101138717D01*
X124934612Y-100897738D01*
X124934614Y-100897729D01*
X124955141Y-100650005D01*
X124955141Y-100649994D01*
X126444357Y-100649994D01*
X126444357Y-100650005D01*
X126464890Y-100897812D01*
X126464892Y-100897824D01*
X126525936Y-101138881D01*
X126625826Y-101366606D01*
X126761833Y-101574782D01*
X126761836Y-101574785D01*
X126930256Y-101757738D01*
X127002666Y-101814097D01*
X127126488Y-101910472D01*
X127126492Y-101910475D01*
X127234517Y-101968934D01*
X127284108Y-102018153D01*
X127299500Y-102077989D01*
X127299500Y-105722009D01*
X127279815Y-105789048D01*
X127234518Y-105831063D01*
X127126501Y-105889519D01*
X127126494Y-105889523D01*
X126930257Y-106042261D01*
X126761833Y-106225217D01*
X126625826Y-106433393D01*
X126525936Y-106661118D01*
X126464892Y-106902175D01*
X126464890Y-106902187D01*
X126444357Y-107149994D01*
X126444357Y-107150005D01*
X126464890Y-107397812D01*
X126464892Y-107397824D01*
X126525936Y-107638881D01*
X126625826Y-107866606D01*
X126761833Y-108074782D01*
X126761836Y-108074785D01*
X126930256Y-108257738D01*
X127126491Y-108410474D01*
X127126493Y-108410475D01*
X127344332Y-108528364D01*
X127345190Y-108528828D01*
X127564141Y-108603994D01*
X127578964Y-108609083D01*
X127580386Y-108609571D01*
X127825665Y-108650500D01*
X128074335Y-108650500D01*
X128319614Y-108609571D01*
X128554810Y-108528828D01*
X128773509Y-108410474D01*
X128969744Y-108257738D01*
X129138164Y-108074785D01*
X129274173Y-107866607D01*
X129374063Y-107638881D01*
X129435108Y-107397821D01*
X129455643Y-107150000D01*
X129449911Y-107080826D01*
X129435109Y-106902187D01*
X129435107Y-106902175D01*
X129374063Y-106661118D01*
X129274173Y-106433393D01*
X129138166Y-106225217D01*
X129063332Y-106143926D01*
X128969744Y-106042262D01*
X128773509Y-105889526D01*
X128773508Y-105889525D01*
X128773505Y-105889523D01*
X128773498Y-105889519D01*
X128665482Y-105831063D01*
X128615891Y-105781844D01*
X128600500Y-105722009D01*
X128600500Y-102077989D01*
X128620185Y-102010950D01*
X128665483Y-101968934D01*
X128773507Y-101910475D01*
X128773506Y-101910475D01*
X128773509Y-101910474D01*
X128969744Y-101757738D01*
X129138164Y-101574785D01*
X129274173Y-101366607D01*
X129274175Y-101366601D01*
X129274786Y-101365475D01*
X129275157Y-101365101D01*
X129276978Y-101362314D01*
X129277551Y-101362688D01*
X129324009Y-101315888D01*
X129383837Y-101300500D01*
X131114071Y-101300500D01*
X131198615Y-101283682D01*
X131239744Y-101275501D01*
X131358127Y-101226465D01*
X131464669Y-101155277D01*
X133255277Y-99364669D01*
X133326465Y-99258127D01*
X133375501Y-99139744D01*
X133378334Y-99125500D01*
X133400500Y-99014069D01*
X133400500Y-98755067D01*
X133419507Y-98689094D01*
X133475788Y-98599524D01*
X133481587Y-98582951D01*
X133535368Y-98429255D01*
X133555565Y-98250000D01*
X133535368Y-98070745D01*
X133475789Y-97900478D01*
X133379816Y-97747738D01*
X133252262Y-97620184D01*
X133099523Y-97524211D01*
X132929254Y-97464631D01*
X132929249Y-97464630D01*
X132750004Y-97444435D01*
X132749996Y-97444435D01*
X132570750Y-97464630D01*
X132570745Y-97464631D01*
X132400476Y-97524211D01*
X132247737Y-97620184D01*
X132120184Y-97747737D01*
X132024211Y-97900476D01*
X131964631Y-98070745D01*
X131964630Y-98070750D01*
X131944435Y-98249996D01*
X131944435Y-98250003D01*
X131964630Y-98429249D01*
X131964633Y-98429262D01*
X132024209Y-98599518D01*
X132024210Y-98599520D01*
X132024211Y-98599522D01*
X132031921Y-98611792D01*
X132050921Y-98679029D01*
X132030553Y-98745864D01*
X132014608Y-98765445D01*
X130816873Y-99963181D01*
X130755550Y-99996666D01*
X130729192Y-99999500D01*
X129383837Y-99999500D01*
X129316798Y-99979815D01*
X129277438Y-99937384D01*
X129276978Y-99937686D01*
X129275214Y-99934987D01*
X129274786Y-99934525D01*
X129274173Y-99933393D01*
X129138166Y-99725217D01*
X129104027Y-99688132D01*
X128969744Y-99542262D01*
X128773509Y-99389526D01*
X128773507Y-99389525D01*
X128773506Y-99389524D01*
X128554811Y-99271172D01*
X128554802Y-99271169D01*
X128319616Y-99190429D01*
X128074335Y-99149500D01*
X127825665Y-99149500D01*
X127580383Y-99190429D01*
X127345197Y-99271169D01*
X127345188Y-99271172D01*
X127126493Y-99389524D01*
X126930257Y-99542261D01*
X126761833Y-99725217D01*
X126625826Y-99933393D01*
X126525936Y-100161118D01*
X126464892Y-100402175D01*
X126464890Y-100402187D01*
X126444357Y-100649994D01*
X124955141Y-100649994D01*
X124934614Y-100402270D01*
X124934612Y-100402261D01*
X124873587Y-100161282D01*
X124773732Y-99933632D01*
X124673435Y-99780116D01*
X123973787Y-100479765D01*
X123962518Y-100437708D01*
X123890110Y-100312292D01*
X123787708Y-100209890D01*
X123662292Y-100137482D01*
X123620233Y-100126212D01*
X124320055Y-99426389D01*
X124320055Y-99426388D01*
X124273236Y-99389947D01*
X124273231Y-99389944D01*
X124054614Y-99271635D01*
X124054603Y-99271630D01*
X123819493Y-99190916D01*
X123574293Y-99150000D01*
X123325707Y-99150000D01*
X123080506Y-99190916D01*
X122845396Y-99271630D01*
X122845385Y-99271635D01*
X122626770Y-99389943D01*
X122579943Y-99426389D01*
X123279766Y-100126212D01*
X123237708Y-100137482D01*
X123112292Y-100209890D01*
X123009890Y-100312292D01*
X122937482Y-100437708D01*
X122926212Y-100479766D01*
X122226563Y-99780117D01*
X122126267Y-99933633D01*
X122126265Y-99933637D01*
X122026412Y-100161282D01*
X121965387Y-100402261D01*
X121965385Y-100402270D01*
X121944859Y-100649994D01*
X118800500Y-100649994D01*
X118800500Y-78999996D01*
X121194435Y-78999996D01*
X121194435Y-79000003D01*
X121214630Y-79179249D01*
X121214631Y-79179254D01*
X121274211Y-79349523D01*
X121332766Y-79442712D01*
X121370184Y-79502262D01*
X121497738Y-79629816D01*
X121557120Y-79667128D01*
X121603410Y-79719461D01*
X121614059Y-79788515D01*
X121585684Y-79852363D01*
X121578830Y-79859801D01*
X121517044Y-79921588D01*
X121488314Y-79964589D01*
X121488312Y-79964592D01*
X121434914Y-80044507D01*
X121378343Y-80181082D01*
X121378340Y-80181092D01*
X121349500Y-80326079D01*
X121349500Y-80326082D01*
X121349500Y-92126082D01*
X121349500Y-94673918D01*
X121349500Y-94673920D01*
X121349499Y-94673920D01*
X121378340Y-94818907D01*
X121378343Y-94818917D01*
X121434914Y-94955492D01*
X121467812Y-95004727D01*
X121467813Y-95004730D01*
X121517046Y-95078414D01*
X121517052Y-95078421D01*
X124917049Y-98478416D01*
X125021583Y-98582950D01*
X125021585Y-98582952D01*
X125144498Y-98665080D01*
X125144511Y-98665087D01*
X125275498Y-98719343D01*
X125281087Y-98721658D01*
X125281091Y-98721658D01*
X125281092Y-98721659D01*
X125426079Y-98750500D01*
X125426082Y-98750500D01*
X130073920Y-98750500D01*
X130171462Y-98731096D01*
X130218913Y-98721658D01*
X130355495Y-98665084D01*
X130404729Y-98632186D01*
X130404734Y-98632183D01*
X130453622Y-98599518D01*
X130478416Y-98582952D01*
X134615153Y-94446213D01*
X134676474Y-94412730D01*
X134746166Y-94417714D01*
X134802099Y-94459586D01*
X134826360Y-94523088D01*
X134844936Y-94735403D01*
X134844938Y-94735413D01*
X134906094Y-94963655D01*
X134906096Y-94963659D01*
X134906097Y-94963663D01*
X134986004Y-95135023D01*
X135005965Y-95177830D01*
X135005967Y-95177834D01*
X135092088Y-95300826D01*
X135141505Y-95371401D01*
X135308599Y-95538495D01*
X135405384Y-95606265D01*
X135502165Y-95674032D01*
X135502167Y-95674033D01*
X135502170Y-95674035D01*
X135716337Y-95773903D01*
X135944592Y-95835063D01*
X136121034Y-95850500D01*
X136179999Y-95855659D01*
X136180000Y-95855659D01*
X136180001Y-95855659D01*
X136238966Y-95850500D01*
X136415408Y-95835063D01*
X136643663Y-95773903D01*
X136857830Y-95674035D01*
X137051401Y-95538495D01*
X137218495Y-95371401D01*
X137348425Y-95185842D01*
X137403002Y-95142217D01*
X137472500Y-95135023D01*
X137534855Y-95166546D01*
X137551575Y-95185842D01*
X137681501Y-95371396D01*
X137681506Y-95371402D01*
X137848595Y-95538492D01*
X137848598Y-95538494D01*
X137848599Y-95538495D01*
X137916623Y-95586125D01*
X137960248Y-95640701D01*
X137969500Y-95687700D01*
X137969500Y-96393918D01*
X137969500Y-96393920D01*
X137969499Y-96393920D01*
X137998340Y-96538907D01*
X137998342Y-96538913D01*
X138054914Y-96675491D01*
X138054917Y-96675496D01*
X138059714Y-96682675D01*
X138137051Y-96798420D01*
X138137052Y-96798421D01*
X139921584Y-98582952D01*
X139921586Y-98582954D01*
X139946377Y-98599518D01*
X139995270Y-98632186D01*
X140044505Y-98665084D01*
X140044506Y-98665084D01*
X140044507Y-98665085D01*
X140044509Y-98665086D01*
X140063333Y-98672883D01*
X140181087Y-98721658D01*
X140181091Y-98721658D01*
X140181092Y-98721659D01*
X140326079Y-98750500D01*
X140326082Y-98750500D01*
X140326083Y-98750500D01*
X140473918Y-98750500D01*
X152757770Y-98750500D01*
X152824809Y-98770185D01*
X152845451Y-98786819D01*
X155872707Y-101814074D01*
X155872728Y-101814097D01*
X159012049Y-104953416D01*
X159116584Y-105057951D01*
X159116587Y-105057953D01*
X159116588Y-105057954D01*
X159239494Y-105140077D01*
X159239496Y-105140078D01*
X159239505Y-105140084D01*
X159270275Y-105152829D01*
X159270276Y-105152830D01*
X159270277Y-105152830D01*
X159376088Y-105196659D01*
X159492241Y-105219763D01*
X159511468Y-105223587D01*
X159521081Y-105225500D01*
X159521082Y-105225500D01*
X159521083Y-105225500D01*
X159668918Y-105225500D01*
X159912299Y-105225500D01*
X159979338Y-105245185D01*
X160013873Y-105278376D01*
X160061505Y-105346401D01*
X160228597Y-105513493D01*
X160228603Y-105513498D01*
X160414594Y-105643730D01*
X160458219Y-105698307D01*
X160465413Y-105767805D01*
X160433890Y-105830160D01*
X160414595Y-105846880D01*
X160228922Y-105976890D01*
X160228920Y-105976891D01*
X160061891Y-106143920D01*
X160061886Y-106143926D01*
X159926400Y-106337420D01*
X159926399Y-106337422D01*
X159826570Y-106551507D01*
X159826567Y-106551513D01*
X159769364Y-106764999D01*
X159769364Y-106765000D01*
X160666988Y-106765000D01*
X160634075Y-106822007D01*
X160600000Y-106949174D01*
X160600000Y-107080826D01*
X160634075Y-107207993D01*
X160666988Y-107265000D01*
X159769364Y-107265000D01*
X159826567Y-107478486D01*
X159826570Y-107478492D01*
X159926399Y-107692578D01*
X160061894Y-107886082D01*
X160228917Y-108053105D01*
X160422421Y-108188600D01*
X160636507Y-108288429D01*
X160636516Y-108288433D01*
X160850000Y-108345634D01*
X160850000Y-107448012D01*
X160907007Y-107480925D01*
X161034174Y-107515000D01*
X161165826Y-107515000D01*
X161292993Y-107480925D01*
X161350000Y-107448012D01*
X161350000Y-108345633D01*
X161563483Y-108288433D01*
X161563492Y-108288429D01*
X161777578Y-108188600D01*
X161971082Y-108053105D01*
X162138105Y-107886082D01*
X162273600Y-107692578D01*
X162373429Y-107478492D01*
X162373432Y-107478486D01*
X162430636Y-107265000D01*
X161533012Y-107265000D01*
X161565925Y-107207993D01*
X161600000Y-107080826D01*
X161600000Y-106949174D01*
X161565925Y-106822007D01*
X161533012Y-106765000D01*
X162430636Y-106765000D01*
X162430635Y-106764999D01*
X162373432Y-106551513D01*
X162373429Y-106551507D01*
X162273600Y-106337422D01*
X162273599Y-106337420D01*
X162138113Y-106143926D01*
X162138108Y-106143920D01*
X161971078Y-105976890D01*
X161785405Y-105846879D01*
X161741780Y-105792302D01*
X161734588Y-105722804D01*
X161766110Y-105660449D01*
X161785406Y-105643730D01*
X161971401Y-105513495D01*
X162138495Y-105346401D01*
X162274035Y-105152830D01*
X162373903Y-104938663D01*
X162435063Y-104710408D01*
X162455659Y-104475000D01*
X162435063Y-104239592D01*
X162373903Y-104011337D01*
X162274035Y-103797171D01*
X162223150Y-103724500D01*
X162138496Y-103603600D01*
X162138495Y-103603599D01*
X162016567Y-103481671D01*
X161983084Y-103420351D01*
X161988068Y-103350659D01*
X162029939Y-103294725D01*
X162060915Y-103277810D01*
X162192331Y-103228796D01*
X162307546Y-103142546D01*
X162393796Y-103027331D01*
X162444091Y-102892483D01*
X162450500Y-102832873D01*
X162450499Y-101037128D01*
X162444091Y-100977517D01*
X162414367Y-100897824D01*
X162393797Y-100842671D01*
X162393793Y-100842664D01*
X162307547Y-100727455D01*
X162307544Y-100727452D01*
X162192335Y-100641206D01*
X162192328Y-100641202D01*
X162057482Y-100590908D01*
X162057483Y-100590908D01*
X161997883Y-100584501D01*
X161997881Y-100584500D01*
X161997873Y-100584500D01*
X161997865Y-100584500D01*
X161974500Y-100584500D01*
X161907461Y-100564815D01*
X161861706Y-100512011D01*
X161850500Y-100460500D01*
X161850500Y-99249499D01*
X161870185Y-99182460D01*
X161922989Y-99136705D01*
X161974500Y-99125499D01*
X161997871Y-99125499D01*
X161997872Y-99125499D01*
X162057483Y-99119091D01*
X162192331Y-99068796D01*
X162307546Y-98982546D01*
X162393796Y-98867331D01*
X162444091Y-98732483D01*
X162450500Y-98672873D01*
X162450499Y-96877128D01*
X162444091Y-96817517D01*
X162436968Y-96798420D01*
X162393797Y-96682671D01*
X162393793Y-96682664D01*
X162307547Y-96567455D01*
X162307544Y-96567452D01*
X162192335Y-96481206D01*
X162192328Y-96481202D01*
X162060401Y-96431997D01*
X162004467Y-96390126D01*
X161980050Y-96324662D01*
X161994902Y-96256389D01*
X162016053Y-96228133D01*
X162138108Y-96106078D01*
X162273600Y-95912578D01*
X162373429Y-95698492D01*
X162373432Y-95698486D01*
X162430636Y-95485000D01*
X161533012Y-95485000D01*
X161565925Y-95427993D01*
X161600000Y-95300826D01*
X161600000Y-95169174D01*
X161565925Y-95042007D01*
X161533012Y-94985000D01*
X162430636Y-94985000D01*
X162430635Y-94984999D01*
X162373432Y-94771513D01*
X162373429Y-94771507D01*
X162273600Y-94557422D01*
X162273599Y-94557420D01*
X162138113Y-94363926D01*
X162138108Y-94363920D01*
X161971082Y-94196894D01*
X161777578Y-94061399D01*
X161563492Y-93961570D01*
X161563486Y-93961567D01*
X161350000Y-93904364D01*
X161350000Y-94801988D01*
X161292993Y-94769075D01*
X161165826Y-94735000D01*
X161034174Y-94735000D01*
X160907007Y-94769075D01*
X160850000Y-94801988D01*
X160850000Y-93904364D01*
X160849999Y-93904364D01*
X160636513Y-93961567D01*
X160636507Y-93961570D01*
X160422422Y-94061399D01*
X160422420Y-94061400D01*
X160228926Y-94196886D01*
X160228920Y-94196891D01*
X160061891Y-94363920D01*
X160061886Y-94363926D01*
X159926400Y-94557420D01*
X159926399Y-94557422D01*
X159826570Y-94771507D01*
X159826567Y-94771513D01*
X159769364Y-94984999D01*
X159769364Y-94985000D01*
X160666988Y-94985000D01*
X160634075Y-95042007D01*
X160600000Y-95169174D01*
X160600000Y-95300826D01*
X160634075Y-95427993D01*
X160666988Y-95485000D01*
X159769364Y-95485000D01*
X159826567Y-95698486D01*
X159826570Y-95698492D01*
X159926399Y-95912578D01*
X160061894Y-96106082D01*
X160183946Y-96228134D01*
X160217431Y-96289457D01*
X160212447Y-96359149D01*
X160170575Y-96415082D01*
X160139598Y-96431997D01*
X160007671Y-96481202D01*
X160007664Y-96481206D01*
X159892455Y-96567452D01*
X159892452Y-96567455D01*
X159806206Y-96682664D01*
X159806202Y-96682671D01*
X159755908Y-96817517D01*
X159749501Y-96877116D01*
X159749501Y-96877123D01*
X159749500Y-96877135D01*
X159749500Y-98672870D01*
X159749501Y-98672876D01*
X159755908Y-98732483D01*
X159806202Y-98867328D01*
X159806206Y-98867335D01*
X159892452Y-98982544D01*
X159892455Y-98982547D01*
X160007664Y-99068793D01*
X160007671Y-99068797D01*
X160052618Y-99085561D01*
X160142517Y-99119091D01*
X160202127Y-99125500D01*
X160225497Y-99125499D01*
X160292536Y-99145181D01*
X160338292Y-99197983D01*
X160349500Y-99249499D01*
X160349500Y-100460500D01*
X160329815Y-100527539D01*
X160277011Y-100573294D01*
X160225505Y-100584500D01*
X160202132Y-100584500D01*
X160202123Y-100584501D01*
X160142516Y-100590908D01*
X160007671Y-100641202D01*
X160007664Y-100641206D01*
X159892455Y-100727452D01*
X159892452Y-100727455D01*
X159806206Y-100842664D01*
X159806202Y-100842671D01*
X159755908Y-100977517D01*
X159749501Y-101037116D01*
X159749501Y-101037123D01*
X159749500Y-101037135D01*
X159749500Y-102832870D01*
X159749501Y-102832876D01*
X159755908Y-102892483D01*
X159806202Y-103027328D01*
X159806206Y-103027335D01*
X159892452Y-103142544D01*
X159892455Y-103142547D01*
X160007664Y-103228793D01*
X160007671Y-103228797D01*
X160139081Y-103277810D01*
X160195015Y-103319681D01*
X160219432Y-103385145D01*
X160204580Y-103453418D01*
X160183430Y-103481673D01*
X160061504Y-103603599D01*
X160032376Y-103645198D01*
X159977798Y-103688822D01*
X159908300Y-103696014D01*
X159845945Y-103664491D01*
X159843121Y-103661754D01*
X157406819Y-101225451D01*
X157373334Y-101164128D01*
X157370500Y-101137770D01*
X157370500Y-95974499D01*
X157390185Y-95907460D01*
X157442989Y-95861705D01*
X157494500Y-95850499D01*
X157517871Y-95850499D01*
X157517872Y-95850499D01*
X157577483Y-95844091D01*
X157712331Y-95793796D01*
X157827546Y-95707546D01*
X157913796Y-95592331D01*
X157964091Y-95457483D01*
X157970500Y-95397873D01*
X157970499Y-93602128D01*
X157964091Y-93542517D01*
X157963002Y-93539598D01*
X157913797Y-93407671D01*
X157913793Y-93407664D01*
X157827547Y-93292455D01*
X157827544Y-93292452D01*
X157712335Y-93206206D01*
X157712328Y-93206202D01*
X157577482Y-93155908D01*
X157577483Y-93155908D01*
X157517883Y-93149501D01*
X157517881Y-93149500D01*
X157517873Y-93149500D01*
X157517864Y-93149500D01*
X155722129Y-93149500D01*
X155722123Y-93149501D01*
X155662516Y-93155908D01*
X155527671Y-93206202D01*
X155527664Y-93206206D01*
X155412455Y-93292452D01*
X155412452Y-93292455D01*
X155326206Y-93407664D01*
X155326202Y-93407671D01*
X155276997Y-93539598D01*
X155235126Y-93595532D01*
X155169661Y-93619949D01*
X155101388Y-93605097D01*
X155073134Y-93583946D01*
X154951082Y-93461894D01*
X154757578Y-93326399D01*
X154543492Y-93226570D01*
X154543486Y-93226567D01*
X154330000Y-93169364D01*
X154330000Y-94066988D01*
X154272993Y-94034075D01*
X154145826Y-94000000D01*
X154014174Y-94000000D01*
X153887007Y-94034075D01*
X153830000Y-94066988D01*
X153830000Y-93169364D01*
X153829999Y-93169364D01*
X153616513Y-93226567D01*
X153616507Y-93226570D01*
X153402422Y-93326399D01*
X153402420Y-93326400D01*
X153208926Y-93461886D01*
X153208920Y-93461891D01*
X153041891Y-93628920D01*
X153041890Y-93628922D01*
X152911880Y-93814595D01*
X152857303Y-93858219D01*
X152787804Y-93865412D01*
X152725450Y-93833890D01*
X152708730Y-93814594D01*
X152578494Y-93628597D01*
X152411402Y-93461506D01*
X152411395Y-93461501D01*
X152409858Y-93460425D01*
X152334518Y-93407671D01*
X152217834Y-93325967D01*
X152217830Y-93325965D01*
X152146727Y-93292809D01*
X152003663Y-93226097D01*
X152003659Y-93226096D01*
X152003655Y-93226094D01*
X151775413Y-93164938D01*
X151775403Y-93164936D01*
X151540001Y-93144341D01*
X151539998Y-93144341D01*
X151326986Y-93162977D01*
X151258486Y-93149210D01*
X151228498Y-93127130D01*
X150978421Y-92877052D01*
X150978414Y-92877046D01*
X150868026Y-92803288D01*
X150849235Y-92787867D01*
X149478421Y-91417052D01*
X149478414Y-91417046D01*
X149388322Y-91356849D01*
X149388223Y-91356784D01*
X149355495Y-91334916D01*
X149355494Y-91334915D01*
X149355492Y-91334914D01*
X149218917Y-91278343D01*
X149218907Y-91278340D01*
X149073920Y-91249500D01*
X149073918Y-91249500D01*
X136665471Y-91249500D01*
X136598432Y-91229815D01*
X136552677Y-91177011D01*
X136542733Y-91107853D01*
X136551689Y-91080934D01*
X136550254Y-91080399D01*
X136603596Y-90937379D01*
X136603598Y-90937372D01*
X136609999Y-90877844D01*
X136610000Y-90877827D01*
X136610000Y-90630000D01*
X134110000Y-90630000D01*
X134110000Y-90877844D01*
X134116401Y-90937372D01*
X134116403Y-90937379D01*
X134166645Y-91072086D01*
X134170897Y-91079872D01*
X134169315Y-91080735D01*
X134189952Y-91136076D01*
X134175095Y-91204348D01*
X134125687Y-91253750D01*
X134090460Y-91266531D01*
X134031091Y-91278340D01*
X134031082Y-91278343D01*
X133894508Y-91334914D01*
X133894505Y-91334915D01*
X133894505Y-91334916D01*
X133861777Y-91356784D01*
X133861776Y-91356783D01*
X133771585Y-91417046D01*
X133771578Y-91417052D01*
X129854951Y-95333681D01*
X129793628Y-95367166D01*
X129767270Y-95370000D01*
X128933012Y-95370000D01*
X128965925Y-95312993D01*
X129000000Y-95185826D01*
X129000000Y-95054174D01*
X128965925Y-94927007D01*
X128933012Y-94870000D01*
X129830636Y-94870000D01*
X129830635Y-94869999D01*
X129773432Y-94656513D01*
X129773429Y-94656507D01*
X129673600Y-94442422D01*
X129673599Y-94442420D01*
X129538113Y-94248926D01*
X129538108Y-94248920D01*
X129371078Y-94081890D01*
X129185405Y-93951879D01*
X129141780Y-93897302D01*
X129134588Y-93827804D01*
X129166110Y-93765449D01*
X129185406Y-93748730D01*
X129371401Y-93618495D01*
X129538495Y-93451401D01*
X129674035Y-93257830D01*
X129773903Y-93043663D01*
X129835063Y-92815408D01*
X129855659Y-92580000D01*
X129837969Y-92377814D01*
X129851735Y-92309318D01*
X129895522Y-92262018D01*
X130042262Y-92169816D01*
X130169816Y-92042262D01*
X130265789Y-91889522D01*
X130325368Y-91719255D01*
X130326182Y-91712025D01*
X130353245Y-91647611D01*
X130361712Y-91638232D01*
X131505277Y-90494669D01*
X131576465Y-90388127D01*
X131578205Y-90383926D01*
X131592051Y-90350500D01*
X131592051Y-90350499D01*
X131600618Y-90329816D01*
X131625501Y-90269744D01*
X131638924Y-90202262D01*
X131650500Y-90144071D01*
X131650500Y-89743042D01*
X131663108Y-89700101D01*
X131652360Y-89678351D01*
X131650500Y-89656957D01*
X131650500Y-88820806D01*
X131670185Y-88753767D01*
X131686815Y-88733129D01*
X131859535Y-88560408D01*
X131920856Y-88526925D01*
X131990547Y-88531909D01*
X132013182Y-88543095D01*
X132040738Y-88560410D01*
X132160095Y-88635408D01*
X132330365Y-88694988D01*
X132330370Y-88694989D01*
X132409325Y-88703885D01*
X132473739Y-88730951D01*
X132513294Y-88788546D01*
X132515432Y-88858383D01*
X132479474Y-88918289D01*
X132436396Y-88944147D01*
X132350478Y-88974210D01*
X132197737Y-89070184D01*
X132070184Y-89197737D01*
X131974211Y-89350476D01*
X131914631Y-89520745D01*
X131914630Y-89520750D01*
X131897720Y-89670840D01*
X131886574Y-89697365D01*
X131893477Y-89708107D01*
X131897720Y-89729159D01*
X131914630Y-89879249D01*
X131914631Y-89879254D01*
X131974211Y-90049523D01*
X132033619Y-90144069D01*
X132070184Y-90202262D01*
X132197738Y-90329816D01*
X132350478Y-90425789D01*
X132520745Y-90485368D01*
X132520750Y-90485369D01*
X132699996Y-90505565D01*
X132700000Y-90505565D01*
X132700004Y-90505565D01*
X132879249Y-90485369D01*
X132879252Y-90485368D01*
X132879255Y-90485368D01*
X133049522Y-90425789D01*
X133202262Y-90329816D01*
X133329816Y-90202262D01*
X133425789Y-90049522D01*
X133485368Y-89879255D01*
X133486182Y-89872025D01*
X133513245Y-89807611D01*
X133521712Y-89798232D01*
X133753126Y-89566819D01*
X133814449Y-89533334D01*
X133840807Y-89530500D01*
X134046764Y-89530500D01*
X134113803Y-89550185D01*
X134159558Y-89602989D01*
X134169502Y-89672147D01*
X134162946Y-89697833D01*
X134116403Y-89822620D01*
X134116401Y-89822627D01*
X134110000Y-89882155D01*
X134110000Y-90130000D01*
X136610000Y-90130000D01*
X136610000Y-89882172D01*
X136609999Y-89882155D01*
X136603598Y-89822627D01*
X136603597Y-89822623D01*
X136550253Y-89679602D01*
X136552067Y-89678925D01*
X136539616Y-89621674D01*
X136551570Y-89580966D01*
X136550696Y-89580640D01*
X136553794Y-89572333D01*
X136553796Y-89572331D01*
X136604091Y-89437483D01*
X136610500Y-89377873D01*
X136610499Y-88382128D01*
X136604091Y-88322517D01*
X136553796Y-88187669D01*
X136553794Y-88187666D01*
X136550696Y-88179360D01*
X136552426Y-88178714D01*
X136539902Y-88121163D01*
X136551691Y-88081011D01*
X136550696Y-88080640D01*
X136553794Y-88072333D01*
X136553796Y-88072331D01*
X136604091Y-87937483D01*
X136610500Y-87877873D01*
X136610499Y-86882128D01*
X136604091Y-86822517D01*
X136553796Y-86687669D01*
X136553794Y-86687666D01*
X136550696Y-86679360D01*
X136552426Y-86678714D01*
X136539902Y-86621163D01*
X136551691Y-86581011D01*
X136550696Y-86580640D01*
X136553794Y-86572333D01*
X136553796Y-86572331D01*
X136604091Y-86437483D01*
X136610500Y-86377873D01*
X136610499Y-85382128D01*
X136604091Y-85322517D01*
X136553796Y-85187669D01*
X136553794Y-85187666D01*
X136550696Y-85179360D01*
X136552426Y-85178714D01*
X136539902Y-85121163D01*
X136551691Y-85081011D01*
X136550696Y-85080640D01*
X136553794Y-85072333D01*
X136553796Y-85072331D01*
X136604091Y-84937483D01*
X136610500Y-84877873D01*
X136610499Y-83882128D01*
X136604091Y-83822517D01*
X136553796Y-83687669D01*
X136553794Y-83687666D01*
X136550696Y-83679360D01*
X136552426Y-83678714D01*
X136539902Y-83621163D01*
X136551691Y-83581011D01*
X136550696Y-83580640D01*
X136553794Y-83572333D01*
X136553796Y-83572331D01*
X136604091Y-83437483D01*
X136610500Y-83377873D01*
X136610499Y-82382128D01*
X136604091Y-82322517D01*
X136553796Y-82187669D01*
X136553794Y-82187666D01*
X136550696Y-82179360D01*
X136552426Y-82178714D01*
X136539902Y-82121163D01*
X136551691Y-82081011D01*
X136550696Y-82080640D01*
X136553794Y-82072333D01*
X136553796Y-82072331D01*
X136604091Y-81937483D01*
X136610500Y-81877873D01*
X136610499Y-80882128D01*
X136604091Y-80822517D01*
X136553796Y-80687669D01*
X136553794Y-80687666D01*
X136550696Y-80679360D01*
X136552426Y-80678714D01*
X136539902Y-80621163D01*
X136551691Y-80581011D01*
X136550696Y-80580640D01*
X136553794Y-80572333D01*
X136553796Y-80572331D01*
X136604091Y-80437483D01*
X136610500Y-80377873D01*
X136610499Y-79382128D01*
X136604091Y-79322517D01*
X136553796Y-79187669D01*
X136553794Y-79187666D01*
X136550696Y-79179360D01*
X136552426Y-79178714D01*
X136539902Y-79121163D01*
X136551691Y-79081011D01*
X136550696Y-79080640D01*
X136553794Y-79072333D01*
X136553796Y-79072331D01*
X136604091Y-78937483D01*
X136610500Y-78877873D01*
X136610499Y-77882128D01*
X136604091Y-77822517D01*
X136576857Y-77749500D01*
X136553797Y-77687671D01*
X136553793Y-77687664D01*
X136467547Y-77572455D01*
X136467544Y-77572452D01*
X136375124Y-77503266D01*
X136333253Y-77447332D01*
X136328269Y-77377641D01*
X136361755Y-77316318D01*
X136423078Y-77282834D01*
X136449435Y-77280000D01*
X151770565Y-77280000D01*
X151837604Y-77299685D01*
X151883359Y-77352489D01*
X151893303Y-77421647D01*
X151864278Y-77485203D01*
X151844876Y-77503266D01*
X151752455Y-77572452D01*
X151752452Y-77572455D01*
X151666206Y-77687664D01*
X151666202Y-77687671D01*
X151615908Y-77822517D01*
X151609501Y-77882116D01*
X151609501Y-77882123D01*
X151609500Y-77882135D01*
X151609500Y-78877870D01*
X151609501Y-78877876D01*
X151615908Y-78937483D01*
X151669303Y-79080641D01*
X151667575Y-79081285D01*
X151680095Y-79138853D01*
X151668310Y-79178988D01*
X151669303Y-79179359D01*
X151615908Y-79322517D01*
X151613005Y-79349523D01*
X151609501Y-79382123D01*
X151609500Y-79382135D01*
X151609500Y-80377870D01*
X151609501Y-80377876D01*
X151615908Y-80437483D01*
X151669303Y-80580641D01*
X151667575Y-80581285D01*
X151680095Y-80638853D01*
X151668310Y-80678988D01*
X151669303Y-80679359D01*
X151615908Y-80822517D01*
X151609706Y-80880210D01*
X151609501Y-80882123D01*
X151609500Y-80882135D01*
X151609500Y-81877870D01*
X151609501Y-81877876D01*
X151615908Y-81937483D01*
X151669303Y-82080641D01*
X151667575Y-82081285D01*
X151680095Y-82138853D01*
X151668310Y-82178988D01*
X151669303Y-82179359D01*
X151615908Y-82322517D01*
X151609501Y-82382116D01*
X151609501Y-82382123D01*
X151609500Y-82382135D01*
X151609500Y-83377870D01*
X151609501Y-83377876D01*
X151615908Y-83437483D01*
X151669303Y-83580641D01*
X151667575Y-83581285D01*
X151680095Y-83638853D01*
X151668310Y-83678988D01*
X151669303Y-83679359D01*
X151615908Y-83822517D01*
X151611055Y-83867664D01*
X151609501Y-83882123D01*
X151609500Y-83882135D01*
X151609500Y-84877870D01*
X151609501Y-84877876D01*
X151615908Y-84937483D01*
X151669303Y-85080641D01*
X151667575Y-85081285D01*
X151680095Y-85138853D01*
X151668310Y-85178988D01*
X151669303Y-85179359D01*
X151615908Y-85322517D01*
X151610522Y-85372622D01*
X151609501Y-85382123D01*
X151609500Y-85382135D01*
X151609500Y-86377870D01*
X151609501Y-86377876D01*
X151615908Y-86437483D01*
X151669303Y-86580641D01*
X151667575Y-86581285D01*
X151680095Y-86638853D01*
X151668310Y-86678988D01*
X151669303Y-86679359D01*
X151615908Y-86822517D01*
X151609501Y-86882116D01*
X151609501Y-86882123D01*
X151609500Y-86882135D01*
X151609500Y-87877870D01*
X151609501Y-87877876D01*
X151615908Y-87937483D01*
X151669303Y-88080641D01*
X151667575Y-88081285D01*
X151680095Y-88138853D01*
X151668310Y-88178988D01*
X151669303Y-88179359D01*
X151615908Y-88322517D01*
X151609501Y-88382116D01*
X151609501Y-88382123D01*
X151609500Y-88382135D01*
X151609500Y-89377870D01*
X151609501Y-89377876D01*
X151615908Y-89437483D01*
X151669303Y-89580641D01*
X151667575Y-89581285D01*
X151680095Y-89638853D01*
X151668310Y-89678988D01*
X151669303Y-89679359D01*
X151615908Y-89822517D01*
X151613290Y-89846872D01*
X151609501Y-89882123D01*
X151609500Y-89882135D01*
X151609500Y-90877870D01*
X151609501Y-90877876D01*
X151615908Y-90937483D01*
X151666202Y-91072328D01*
X151666206Y-91072335D01*
X151752452Y-91187544D01*
X151752455Y-91187547D01*
X151867664Y-91273793D01*
X151867671Y-91273797D01*
X152002517Y-91324091D01*
X152002516Y-91324091D01*
X152009444Y-91324835D01*
X152062127Y-91330500D01*
X153657872Y-91330499D01*
X153717483Y-91324091D01*
X153852331Y-91273796D01*
X153967546Y-91187546D01*
X154053796Y-91072331D01*
X154104091Y-90937483D01*
X154110500Y-90877873D01*
X154110499Y-89882128D01*
X154104091Y-89822517D01*
X154053796Y-89687669D01*
X154053794Y-89687666D01*
X154050696Y-89679360D01*
X154052426Y-89678714D01*
X154039902Y-89621163D01*
X154051691Y-89581011D01*
X154050696Y-89580640D01*
X154053794Y-89572333D01*
X154053796Y-89572331D01*
X154104091Y-89437483D01*
X154110500Y-89377873D01*
X154110499Y-88382128D01*
X154104091Y-88322517D01*
X154053796Y-88187669D01*
X154053794Y-88187666D01*
X154050696Y-88179360D01*
X154052426Y-88178714D01*
X154039902Y-88121163D01*
X154051691Y-88081011D01*
X154050696Y-88080640D01*
X154053794Y-88072333D01*
X154053796Y-88072331D01*
X154104091Y-87937483D01*
X154110500Y-87877873D01*
X154110499Y-86882128D01*
X154104091Y-86822517D01*
X154053796Y-86687669D01*
X154053794Y-86687666D01*
X154050696Y-86679360D01*
X154052426Y-86678714D01*
X154039902Y-86621163D01*
X154051691Y-86581014D01*
X154050696Y-86580643D01*
X154060669Y-86553903D01*
X154068369Y-86533255D01*
X154110237Y-86477323D01*
X154152455Y-86456814D01*
X154216786Y-86439577D01*
X154294996Y-86394422D01*
X154353717Y-86360520D01*
X154465521Y-86248716D01*
X154465521Y-86248714D01*
X154475722Y-86238514D01*
X154475725Y-86238509D01*
X154562822Y-86151413D01*
X154624143Y-86117931D01*
X154693834Y-86122915D01*
X154749768Y-86164787D01*
X154774184Y-86230252D01*
X154774500Y-86239097D01*
X154774500Y-88306530D01*
X154774499Y-88306548D01*
X154774499Y-88472254D01*
X154774498Y-88472254D01*
X154774499Y-88472257D01*
X154815423Y-88624985D01*
X154821441Y-88635409D01*
X154844358Y-88675100D01*
X154844359Y-88675104D01*
X154844360Y-88675104D01*
X154894479Y-88761914D01*
X154894481Y-88761917D01*
X155013349Y-88880785D01*
X155013354Y-88880789D01*
X157738084Y-91605520D01*
X157738086Y-91605521D01*
X157738090Y-91605524D01*
X157847869Y-91668904D01*
X157875016Y-91684577D01*
X158027743Y-91725501D01*
X158027745Y-91725501D01*
X158193454Y-91725501D01*
X158193470Y-91725500D01*
X163006531Y-91725500D01*
X163006547Y-91725501D01*
X163014143Y-91725501D01*
X163172254Y-91725501D01*
X163172257Y-91725501D01*
X163324985Y-91684577D01*
X163375104Y-91655639D01*
X163461916Y-91605520D01*
X163573720Y-91493716D01*
X163573720Y-91493714D01*
X163583928Y-91483507D01*
X163583930Y-91483504D01*
X164693713Y-90373721D01*
X164693716Y-90373720D01*
X164805520Y-90261916D01*
X164855639Y-90175104D01*
X164884577Y-90124985D01*
X164925500Y-89972258D01*
X164925500Y-89814143D01*
X164925500Y-77027743D01*
X164884577Y-76875016D01*
X164884577Y-76875015D01*
X164850491Y-76815977D01*
X164805520Y-76738084D01*
X164693716Y-76626280D01*
X164693715Y-76626279D01*
X164689385Y-76621949D01*
X164689374Y-76621939D01*
X163810790Y-75743355D01*
X163810788Y-75743352D01*
X163691917Y-75624481D01*
X163691916Y-75624480D01*
X163605104Y-75574360D01*
X163605104Y-75574359D01*
X163605100Y-75574358D01*
X163554985Y-75545423D01*
X163402257Y-75504499D01*
X163244143Y-75504499D01*
X163236547Y-75504499D01*
X163236531Y-75504500D01*
X162845097Y-75504500D01*
X162778058Y-75484815D01*
X162757416Y-75468181D01*
X162491978Y-75202743D01*
X162458493Y-75141420D01*
X162456763Y-75125338D01*
X162456131Y-75125394D01*
X162435063Y-74884596D01*
X162435063Y-74884592D01*
X162373903Y-74656337D01*
X162274035Y-74442171D01*
X162138495Y-74248599D01*
X162138494Y-74248597D01*
X161971402Y-74081506D01*
X161971396Y-74081501D01*
X161785842Y-73951575D01*
X161742217Y-73896998D01*
X161735023Y-73827500D01*
X161766546Y-73765145D01*
X161785842Y-73748425D01*
X161808026Y-73732891D01*
X161971401Y-73618495D01*
X162138495Y-73451401D01*
X162274035Y-73257830D01*
X162373903Y-73043663D01*
X162435063Y-72815408D01*
X162455659Y-72580000D01*
X162435063Y-72344592D01*
X162373903Y-72116337D01*
X162274035Y-71902171D01*
X162138495Y-71708599D01*
X162016567Y-71586671D01*
X161983084Y-71525351D01*
X161988068Y-71455659D01*
X162029939Y-71399725D01*
X162060915Y-71382810D01*
X162192331Y-71333796D01*
X162307546Y-71247546D01*
X162393796Y-71132331D01*
X162444091Y-70997483D01*
X162450500Y-70937873D01*
X162450499Y-69142128D01*
X162444091Y-69082517D01*
X162417461Y-69011119D01*
X162393797Y-68947671D01*
X162393793Y-68947664D01*
X162307547Y-68832455D01*
X162307544Y-68832452D01*
X162192335Y-68746206D01*
X162192328Y-68746202D01*
X162057482Y-68695908D01*
X162057483Y-68695908D01*
X161997883Y-68689501D01*
X161997881Y-68689500D01*
X161997873Y-68689500D01*
X161997864Y-68689500D01*
X160202129Y-68689500D01*
X160202123Y-68689501D01*
X160142516Y-68695908D01*
X160007671Y-68746202D01*
X160007664Y-68746206D01*
X159892455Y-68832452D01*
X159892452Y-68832455D01*
X159806206Y-68947664D01*
X159806202Y-68947671D01*
X159755908Y-69082517D01*
X159749501Y-69142116D01*
X159749501Y-69142123D01*
X159749500Y-69142135D01*
X159749500Y-70937870D01*
X159749501Y-70937876D01*
X159755908Y-70997483D01*
X159806202Y-71132328D01*
X159806206Y-71132335D01*
X159892452Y-71247544D01*
X159892455Y-71247547D01*
X160007664Y-71333793D01*
X160007671Y-71333797D01*
X160139081Y-71382810D01*
X160195015Y-71424681D01*
X160219432Y-71490145D01*
X160204580Y-71558418D01*
X160183430Y-71586673D01*
X160061503Y-71708600D01*
X159925965Y-71902169D01*
X159925964Y-71902171D01*
X159826098Y-72116335D01*
X159826094Y-72116344D01*
X159764938Y-72344586D01*
X159764936Y-72344596D01*
X159744341Y-72579999D01*
X159744341Y-72580000D01*
X159764936Y-72815403D01*
X159764938Y-72815413D01*
X159826094Y-73043655D01*
X159826096Y-73043659D01*
X159826097Y-73043663D01*
X159925965Y-73257830D01*
X159925967Y-73257834D01*
X160061501Y-73451395D01*
X160061506Y-73451402D01*
X160228597Y-73618493D01*
X160228603Y-73618498D01*
X160414158Y-73748425D01*
X160457783Y-73803002D01*
X160464977Y-73872500D01*
X160433454Y-73934855D01*
X160414158Y-73951575D01*
X160228597Y-74081505D01*
X160061505Y-74248597D01*
X159925965Y-74442169D01*
X159925964Y-74442171D01*
X159826098Y-74656335D01*
X159826094Y-74656344D01*
X159764938Y-74884586D01*
X159764936Y-74884596D01*
X159744341Y-75119999D01*
X159744341Y-75120000D01*
X159764936Y-75355403D01*
X159764938Y-75355413D01*
X159826094Y-75583655D01*
X159826096Y-75583659D01*
X159826097Y-75583663D01*
X159900563Y-75743355D01*
X159925965Y-75797830D01*
X159925967Y-75797834D01*
X160061501Y-75991395D01*
X160061506Y-75991402D01*
X160228597Y-76158493D01*
X160228603Y-76158498D01*
X160414158Y-76288425D01*
X160457783Y-76343002D01*
X160464977Y-76412500D01*
X160433454Y-76474855D01*
X160414158Y-76491575D01*
X160228597Y-76621505D01*
X160061505Y-76788597D01*
X159925965Y-76982169D01*
X159925964Y-76982171D01*
X159826098Y-77196335D01*
X159826094Y-77196344D01*
X159764938Y-77424586D01*
X159764936Y-77424596D01*
X159744341Y-77659999D01*
X159744341Y-77660000D01*
X159764936Y-77895403D01*
X159764938Y-77895413D01*
X159826094Y-78123655D01*
X159826096Y-78123659D01*
X159826097Y-78123663D01*
X159925965Y-78337830D01*
X159925967Y-78337834D01*
X160034281Y-78492521D01*
X160060983Y-78530656D01*
X160061501Y-78531395D01*
X160061506Y-78531402D01*
X160228597Y-78698493D01*
X160228603Y-78698498D01*
X160414158Y-78828425D01*
X160457783Y-78883002D01*
X160464977Y-78952500D01*
X160433454Y-79014855D01*
X160414158Y-79031575D01*
X160228597Y-79161505D01*
X160061505Y-79328597D01*
X159925965Y-79522169D01*
X159925964Y-79522171D01*
X159826098Y-79736335D01*
X159826094Y-79736344D01*
X159764938Y-79964586D01*
X159764936Y-79964596D01*
X159744341Y-80199999D01*
X159744341Y-80200000D01*
X159764936Y-80435403D01*
X159764938Y-80435413D01*
X159826094Y-80663655D01*
X159826096Y-80663659D01*
X159826097Y-80663663D01*
X159892267Y-80805565D01*
X159925965Y-80877830D01*
X159925967Y-80877834D01*
X160061501Y-81071395D01*
X160061506Y-81071402D01*
X160228597Y-81238493D01*
X160228603Y-81238498D01*
X160414158Y-81368425D01*
X160457783Y-81423002D01*
X160464977Y-81492500D01*
X160433454Y-81554855D01*
X160414158Y-81571575D01*
X160228597Y-81701505D01*
X160061505Y-81868597D01*
X159925965Y-82062169D01*
X159925964Y-82062171D01*
X159826098Y-82276335D01*
X159826094Y-82276344D01*
X159764938Y-82504586D01*
X159764936Y-82504596D01*
X159744341Y-82739999D01*
X159744341Y-82740000D01*
X159764936Y-82975403D01*
X159764938Y-82975413D01*
X159826094Y-83203655D01*
X159826096Y-83203659D01*
X159826097Y-83203663D01*
X159907331Y-83377870D01*
X159925965Y-83417830D01*
X159925967Y-83417834D01*
X160061501Y-83611395D01*
X160061506Y-83611402D01*
X160228597Y-83778493D01*
X160228603Y-83778498D01*
X160414158Y-83908425D01*
X160457783Y-83963002D01*
X160464977Y-84032500D01*
X160433454Y-84094855D01*
X160414158Y-84111575D01*
X160228597Y-84241505D01*
X160061505Y-84408597D01*
X159925965Y-84602169D01*
X159925964Y-84602171D01*
X159826098Y-84816335D01*
X159826094Y-84816344D01*
X159764938Y-85044586D01*
X159764936Y-85044596D01*
X159744341Y-85279999D01*
X159744341Y-85280000D01*
X159764936Y-85515403D01*
X159764938Y-85515413D01*
X159826094Y-85743655D01*
X159826096Y-85743659D01*
X159826097Y-85743663D01*
X159879350Y-85857864D01*
X159925965Y-85957830D01*
X159925967Y-85957834D01*
X160061501Y-86151395D01*
X160061506Y-86151402D01*
X160228597Y-86318493D01*
X160228603Y-86318498D01*
X160288614Y-86360518D01*
X160401520Y-86439576D01*
X160414594Y-86448730D01*
X160458219Y-86503307D01*
X160465413Y-86572805D01*
X160433890Y-86635160D01*
X160414595Y-86651880D01*
X160228922Y-86781890D01*
X160228920Y-86781891D01*
X160061891Y-86948920D01*
X160061886Y-86948926D01*
X159926400Y-87142420D01*
X159926399Y-87142422D01*
X159826570Y-87356507D01*
X159826567Y-87356513D01*
X159769364Y-87569999D01*
X159769364Y-87570000D01*
X160666988Y-87570000D01*
X160634075Y-87627007D01*
X160600000Y-87754174D01*
X160600000Y-87885826D01*
X160634075Y-88012993D01*
X160666988Y-88070000D01*
X159769364Y-88070000D01*
X159826567Y-88283486D01*
X159826570Y-88283492D01*
X159926399Y-88497578D01*
X160061894Y-88691082D01*
X160228917Y-88858105D01*
X160422421Y-88993600D01*
X160636507Y-89093429D01*
X160636516Y-89093433D01*
X160850000Y-89150634D01*
X160850000Y-88253012D01*
X160907007Y-88285925D01*
X161034174Y-88320000D01*
X161165826Y-88320000D01*
X161292993Y-88285925D01*
X161350000Y-88253012D01*
X161350000Y-89150633D01*
X161563483Y-89093433D01*
X161563492Y-89093429D01*
X161777578Y-88993600D01*
X161971082Y-88858105D01*
X162138105Y-88691082D01*
X162273600Y-88497578D01*
X162373429Y-88283492D01*
X162373432Y-88283486D01*
X162430636Y-88070000D01*
X161533012Y-88070000D01*
X161565925Y-88012993D01*
X161600000Y-87885826D01*
X161600000Y-87754174D01*
X161565925Y-87627007D01*
X161533012Y-87570000D01*
X162430636Y-87570000D01*
X162430635Y-87569999D01*
X162373432Y-87356513D01*
X162373429Y-87356507D01*
X162273600Y-87142422D01*
X162273599Y-87142420D01*
X162138113Y-86948926D01*
X162138108Y-86948920D01*
X161971078Y-86781890D01*
X161785405Y-86651879D01*
X161741780Y-86597302D01*
X161734588Y-86527804D01*
X161766110Y-86465449D01*
X161785406Y-86448730D01*
X161798478Y-86439577D01*
X161971401Y-86318495D01*
X162138495Y-86151401D01*
X162274035Y-85957830D01*
X162373903Y-85743663D01*
X162435063Y-85515408D01*
X162455659Y-85280000D01*
X162435063Y-85044592D01*
X162373903Y-84816337D01*
X162274035Y-84602171D01*
X162149615Y-84424479D01*
X162138494Y-84408597D01*
X161971402Y-84241506D01*
X161971396Y-84241501D01*
X161785842Y-84111575D01*
X161742217Y-84056998D01*
X161735023Y-83987500D01*
X161766546Y-83925145D01*
X161785842Y-83908425D01*
X161825230Y-83880845D01*
X161971401Y-83778495D01*
X162138495Y-83611401D01*
X162274035Y-83417830D01*
X162373903Y-83203663D01*
X162435063Y-82975408D01*
X162455659Y-82740000D01*
X162435063Y-82504592D01*
X162373903Y-82276337D01*
X162274035Y-82062171D01*
X162265643Y-82050185D01*
X162138494Y-81868597D01*
X161971402Y-81701506D01*
X161971396Y-81701501D01*
X161785842Y-81571575D01*
X161742217Y-81516998D01*
X161735023Y-81447500D01*
X161766546Y-81385145D01*
X161785842Y-81368425D01*
X161856919Y-81318656D01*
X161971401Y-81238495D01*
X162138495Y-81071401D01*
X162274035Y-80877830D01*
X162373903Y-80663663D01*
X162435063Y-80435408D01*
X162455659Y-80200000D01*
X162453843Y-80179249D01*
X162442055Y-80044507D01*
X162435063Y-79964592D01*
X162373903Y-79736337D01*
X162274035Y-79522171D01*
X162218398Y-79442712D01*
X162138494Y-79328597D01*
X161971402Y-79161506D01*
X161971396Y-79161501D01*
X161785842Y-79031575D01*
X161742217Y-78976998D01*
X161735023Y-78907500D01*
X161766546Y-78845145D01*
X161785842Y-78828425D01*
X161808026Y-78812891D01*
X161971401Y-78698495D01*
X162138495Y-78531401D01*
X162274035Y-78337830D01*
X162373903Y-78123663D01*
X162435063Y-77895408D01*
X162455659Y-77660000D01*
X162447309Y-77564567D01*
X162461075Y-77496067D01*
X162483156Y-77466078D01*
X162596745Y-77352489D01*
X162753222Y-77196012D01*
X162814541Y-77162530D01*
X162884232Y-77167514D01*
X162928580Y-77196015D01*
X163238181Y-77505616D01*
X163271666Y-77566939D01*
X163274500Y-77593297D01*
X163274500Y-89406702D01*
X163254815Y-89473741D01*
X163238181Y-89494383D01*
X162694384Y-90038181D01*
X162633061Y-90071666D01*
X162606703Y-90074500D01*
X158593297Y-90074500D01*
X158526258Y-90054815D01*
X158505616Y-90038181D01*
X156461819Y-87994384D01*
X156428334Y-87933061D01*
X156425500Y-87906703D01*
X156425500Y-85696581D01*
X156425501Y-85696568D01*
X156425501Y-85528465D01*
X156425501Y-85528464D01*
X156384577Y-85375737D01*
X156382779Y-85372622D01*
X156305524Y-85238811D01*
X156305518Y-85238803D01*
X155610069Y-84543355D01*
X155610067Y-84543352D01*
X155491196Y-84424481D01*
X155491195Y-84424480D01*
X155404383Y-84374360D01*
X155404383Y-84374359D01*
X155404379Y-84374358D01*
X155354264Y-84345423D01*
X155201536Y-84304499D01*
X155043422Y-84304499D01*
X155035826Y-84304499D01*
X155035810Y-84304500D01*
X154810098Y-84304500D01*
X154743059Y-84284815D01*
X154722417Y-84268181D01*
X154472591Y-84018355D01*
X154472589Y-84018352D01*
X154353718Y-83899481D01*
X154353717Y-83899480D01*
X154266905Y-83849360D01*
X154266905Y-83849359D01*
X154266901Y-83849358D01*
X154216786Y-83820423D01*
X154152456Y-83803185D01*
X154092797Y-83766820D01*
X154068369Y-83726743D01*
X154053796Y-83687669D01*
X154050696Y-83679356D01*
X154052426Y-83678710D01*
X154039902Y-83621169D01*
X154051693Y-83581011D01*
X154050696Y-83580640D01*
X154053794Y-83572333D01*
X154053796Y-83572331D01*
X154104091Y-83437483D01*
X154110500Y-83377873D01*
X154110499Y-82382128D01*
X154104091Y-82322517D01*
X154057585Y-82197829D01*
X154052602Y-82128142D01*
X154086086Y-82066819D01*
X154147410Y-82033334D01*
X154173768Y-82030500D01*
X154296503Y-82030500D01*
X154363542Y-82050185D01*
X154409297Y-82102989D01*
X154414209Y-82115496D01*
X154465185Y-82269331D01*
X154465187Y-82269336D01*
X154497989Y-82322517D01*
X154557288Y-82418656D01*
X154681344Y-82542712D01*
X154830666Y-82634814D01*
X154997203Y-82689999D01*
X155099991Y-82700500D01*
X155900008Y-82700499D01*
X155900016Y-82700498D01*
X155900019Y-82700498D01*
X155956302Y-82694748D01*
X156002797Y-82689999D01*
X156169334Y-82634814D01*
X156318656Y-82542712D01*
X156412319Y-82449049D01*
X156473642Y-82415564D01*
X156543334Y-82420548D01*
X156587681Y-82449049D01*
X156681344Y-82542712D01*
X156709151Y-82559863D01*
X156755875Y-82611811D01*
X156767098Y-82680774D01*
X156749048Y-82731374D01*
X156674211Y-82850476D01*
X156614631Y-83020745D01*
X156614630Y-83020750D01*
X156594435Y-83199996D01*
X156594435Y-83200003D01*
X156614630Y-83379249D01*
X156614631Y-83379254D01*
X156674211Y-83549523D01*
X156730341Y-83638853D01*
X156770184Y-83702262D01*
X156897738Y-83829816D01*
X156928842Y-83849360D01*
X157031771Y-83914035D01*
X157050478Y-83925789D01*
X157156827Y-83963002D01*
X157220745Y-83985368D01*
X157220750Y-83985369D01*
X157399996Y-84005565D01*
X157400000Y-84005565D01*
X157400004Y-84005565D01*
X157579249Y-83985369D01*
X157579252Y-83985368D01*
X157579255Y-83985368D01*
X157749522Y-83925789D01*
X157902262Y-83829816D01*
X158029816Y-83702262D01*
X158125789Y-83549522D01*
X158185368Y-83379255D01*
X158185523Y-83377883D01*
X158205565Y-83200003D01*
X158205565Y-83199996D01*
X158189485Y-83057288D01*
X158185368Y-83020745D01*
X158157458Y-82940982D01*
X158150500Y-82900028D01*
X158150500Y-82715638D01*
X158170185Y-82648599D01*
X158209401Y-82610100D01*
X158318656Y-82542712D01*
X158442712Y-82418656D01*
X158534814Y-82269334D01*
X158589999Y-82102797D01*
X158600500Y-82000009D01*
X158600499Y-80999992D01*
X158597671Y-80972312D01*
X158589999Y-80897203D01*
X158589998Y-80897200D01*
X158577309Y-80858907D01*
X158534814Y-80730666D01*
X158442712Y-80581344D01*
X158318656Y-80457288D01*
X158189903Y-80377873D01*
X158169336Y-80365187D01*
X158169331Y-80365185D01*
X158122063Y-80349522D01*
X158002797Y-80310001D01*
X158002795Y-80310000D01*
X157900010Y-80299500D01*
X157099998Y-80299500D01*
X157099980Y-80299501D01*
X156997203Y-80310000D01*
X156997200Y-80310001D01*
X156830668Y-80365185D01*
X156830663Y-80365187D01*
X156681342Y-80457289D01*
X156587681Y-80550951D01*
X156526358Y-80584436D01*
X156456666Y-80579452D01*
X156412319Y-80550951D01*
X156318657Y-80457289D01*
X156318656Y-80457288D01*
X156189903Y-80377873D01*
X156169336Y-80365187D01*
X156169331Y-80365185D01*
X156122063Y-80349522D01*
X156002797Y-80310001D01*
X156002795Y-80310000D01*
X155900010Y-80299500D01*
X155099998Y-80299500D01*
X155099980Y-80299501D01*
X154997203Y-80310000D01*
X154997200Y-80310001D01*
X154830668Y-80365185D01*
X154830663Y-80365187D01*
X154681342Y-80457289D01*
X154557289Y-80581342D01*
X154557288Y-80581344D01*
X154504365Y-80667147D01*
X154502237Y-80670597D01*
X154450289Y-80717321D01*
X154396698Y-80729500D01*
X154173768Y-80729500D01*
X154106729Y-80709815D01*
X154060974Y-80657011D01*
X154051030Y-80587853D01*
X154057583Y-80562177D01*
X154104091Y-80437483D01*
X154110500Y-80377873D01*
X154110499Y-79382128D01*
X154104091Y-79322517D01*
X154053796Y-79187669D01*
X154053794Y-79187666D01*
X154050696Y-79179360D01*
X154052426Y-79178714D01*
X154039902Y-79121163D01*
X154051691Y-79081011D01*
X154050696Y-79080640D01*
X154053794Y-79072333D01*
X154053796Y-79072331D01*
X154104091Y-78937483D01*
X154110500Y-78877873D01*
X154110499Y-77882128D01*
X154104091Y-77822517D01*
X154076857Y-77749500D01*
X154053797Y-77687671D01*
X154053793Y-77687664D01*
X153967547Y-77572455D01*
X153967544Y-77572452D01*
X153875124Y-77503266D01*
X153833253Y-77447332D01*
X153828269Y-77377641D01*
X153861755Y-77316318D01*
X153923078Y-77282834D01*
X153949435Y-77280000D01*
X158110000Y-77280000D01*
X158110000Y-66280000D01*
X130110000Y-66280000D01*
X130110000Y-77280000D01*
X134270565Y-77280000D01*
X134337604Y-77299685D01*
X134383359Y-77352489D01*
X134393303Y-77421647D01*
X134364278Y-77485203D01*
X134344876Y-77503266D01*
X134252457Y-77572451D01*
X134252451Y-77572457D01*
X134246948Y-77579809D01*
X134191015Y-77621681D01*
X134147680Y-77629500D01*
X130088505Y-77629500D01*
X130023409Y-77611039D01*
X129969340Y-77577689D01*
X129969335Y-77577687D01*
X129969334Y-77577686D01*
X129802797Y-77522501D01*
X129802795Y-77522500D01*
X129700016Y-77512000D01*
X128847342Y-77512000D01*
X128780303Y-77492315D01*
X128734548Y-77439511D01*
X128724604Y-77370353D01*
X128753629Y-77306797D01*
X128788327Y-77278944D01*
X128823230Y-77260055D01*
X128823236Y-77260051D01*
X128870055Y-77223610D01*
X128870056Y-77223609D01*
X128170233Y-76523787D01*
X128212292Y-76512518D01*
X128337708Y-76440110D01*
X128440110Y-76337708D01*
X128512518Y-76212292D01*
X128523787Y-76170233D01*
X129223435Y-76869882D01*
X129323733Y-76716364D01*
X129423587Y-76488717D01*
X129484612Y-76247738D01*
X129484614Y-76247729D01*
X129505141Y-76000005D01*
X129505141Y-75999994D01*
X129484614Y-75752270D01*
X129484612Y-75752261D01*
X129423587Y-75511282D01*
X129323732Y-75283632D01*
X129223435Y-75130116D01*
X128523787Y-75829765D01*
X128512518Y-75787708D01*
X128440110Y-75662292D01*
X128337708Y-75559890D01*
X128212292Y-75487482D01*
X128170233Y-75476212D01*
X128870055Y-74776389D01*
X128870055Y-74776388D01*
X128823236Y-74739947D01*
X128823231Y-74739944D01*
X128604614Y-74621635D01*
X128604603Y-74621630D01*
X128369493Y-74540916D01*
X128124293Y-74500000D01*
X127875707Y-74500000D01*
X127630506Y-74540916D01*
X127395396Y-74621630D01*
X127395385Y-74621635D01*
X127176770Y-74739943D01*
X127129943Y-74776389D01*
X127829766Y-75476212D01*
X127787708Y-75487482D01*
X127662292Y-75559890D01*
X127559890Y-75662292D01*
X127487482Y-75787708D01*
X127476212Y-75829766D01*
X126776563Y-75130117D01*
X126676267Y-75283633D01*
X126676265Y-75283637D01*
X126576412Y-75511282D01*
X126515387Y-75752261D01*
X126515385Y-75752270D01*
X126494859Y-75999994D01*
X126494859Y-76000005D01*
X126515385Y-76247729D01*
X126515387Y-76247738D01*
X126576412Y-76488717D01*
X126676267Y-76716367D01*
X126776562Y-76869881D01*
X127476212Y-76170233D01*
X127487482Y-76212292D01*
X127559890Y-76337708D01*
X127662292Y-76440110D01*
X127787708Y-76512518D01*
X127829766Y-76523787D01*
X127129943Y-77223609D01*
X127176768Y-77260055D01*
X127176775Y-77260060D01*
X127197815Y-77271446D01*
X127247405Y-77320665D01*
X127262513Y-77388882D01*
X127238342Y-77454437D01*
X127182566Y-77496518D01*
X127138797Y-77504500D01*
X125809998Y-77504500D01*
X125809981Y-77504501D01*
X125707203Y-77515000D01*
X125707200Y-77515001D01*
X125540668Y-77570185D01*
X125540663Y-77570187D01*
X125391342Y-77662289D01*
X125340451Y-77713181D01*
X125279128Y-77746666D01*
X125252770Y-77749500D01*
X125153958Y-77749500D01*
X125086919Y-77729815D01*
X125048420Y-77690598D01*
X125042712Y-77681344D01*
X124918657Y-77557289D01*
X124918656Y-77557288D01*
X124783520Y-77473936D01*
X124769336Y-77465187D01*
X124769331Y-77465185D01*
X124752389Y-77459571D01*
X124602797Y-77410001D01*
X124602795Y-77410000D01*
X124500007Y-77399499D01*
X124499582Y-77399478D01*
X124499494Y-77399447D01*
X124496868Y-77399179D01*
X124496932Y-77398550D01*
X124433634Y-77376399D01*
X124390633Y-77321329D01*
X124384230Y-77251754D01*
X124416460Y-77189761D01*
X124429735Y-77177794D01*
X124519744Y-77107738D01*
X124688164Y-76924785D01*
X124824173Y-76716607D01*
X124924063Y-76488881D01*
X124985108Y-76247821D01*
X125005643Y-76000000D01*
X125004930Y-75991401D01*
X124985109Y-75752187D01*
X124985107Y-75752175D01*
X124924063Y-75511118D01*
X124824173Y-75283393D01*
X124688166Y-75075217D01*
X124666557Y-75051744D01*
X124519744Y-74892262D01*
X124323509Y-74739526D01*
X124323508Y-74739525D01*
X124323505Y-74739523D01*
X124323498Y-74739519D01*
X124215482Y-74681063D01*
X124165891Y-74631844D01*
X124150500Y-74572009D01*
X124150500Y-70927989D01*
X124170185Y-70860950D01*
X124215483Y-70818934D01*
X124323507Y-70760475D01*
X124323506Y-70760475D01*
X124323509Y-70760474D01*
X124519744Y-70607738D01*
X124688164Y-70424785D01*
X124824173Y-70216607D01*
X124924063Y-69988881D01*
X124985108Y-69747821D01*
X125005643Y-69500000D01*
X125005643Y-69499994D01*
X126494859Y-69499994D01*
X126494859Y-69500005D01*
X126515385Y-69747729D01*
X126515387Y-69747738D01*
X126576412Y-69988717D01*
X126676267Y-70216367D01*
X126776562Y-70369881D01*
X127476212Y-69670233D01*
X127487482Y-69712292D01*
X127559890Y-69837708D01*
X127662292Y-69940110D01*
X127787708Y-70012518D01*
X127829766Y-70023787D01*
X127129943Y-70723609D01*
X127176768Y-70760055D01*
X127176771Y-70760057D01*
X127395385Y-70878364D01*
X127395396Y-70878369D01*
X127630506Y-70959083D01*
X127875707Y-71000000D01*
X128124293Y-71000000D01*
X128369493Y-70959083D01*
X128604603Y-70878369D01*
X128604614Y-70878364D01*
X128823230Y-70760056D01*
X128823236Y-70760051D01*
X128870055Y-70723610D01*
X128870056Y-70723609D01*
X128170233Y-70023787D01*
X128212292Y-70012518D01*
X128337708Y-69940110D01*
X128440110Y-69837708D01*
X128512518Y-69712292D01*
X128523787Y-69670233D01*
X129223435Y-70369882D01*
X129323733Y-70216364D01*
X129423587Y-69988717D01*
X129484612Y-69747738D01*
X129484614Y-69747729D01*
X129505141Y-69500005D01*
X129505141Y-69499994D01*
X129484614Y-69252270D01*
X129484612Y-69252261D01*
X129423587Y-69011282D01*
X129323732Y-68783632D01*
X129223435Y-68630116D01*
X128523787Y-69329765D01*
X128512518Y-69287708D01*
X128440110Y-69162292D01*
X128337708Y-69059890D01*
X128212292Y-68987482D01*
X128170233Y-68976212D01*
X128870055Y-68276389D01*
X128870055Y-68276388D01*
X128823236Y-68239947D01*
X128823231Y-68239944D01*
X128604614Y-68121635D01*
X128604603Y-68121630D01*
X128369493Y-68040916D01*
X128124293Y-68000000D01*
X127875707Y-68000000D01*
X127630506Y-68040916D01*
X127395396Y-68121630D01*
X127395385Y-68121635D01*
X127176770Y-68239943D01*
X127129943Y-68276389D01*
X127829766Y-68976212D01*
X127787708Y-68987482D01*
X127662292Y-69059890D01*
X127559890Y-69162292D01*
X127487482Y-69287708D01*
X127476212Y-69329766D01*
X126776563Y-68630117D01*
X126676267Y-68783633D01*
X126676265Y-68783637D01*
X126576412Y-69011282D01*
X126515387Y-69252261D01*
X126515385Y-69252270D01*
X126494859Y-69499994D01*
X125005643Y-69499994D01*
X124985108Y-69252179D01*
X124985107Y-69252175D01*
X124924063Y-69011118D01*
X124824173Y-68783393D01*
X124688166Y-68575217D01*
X124666557Y-68551744D01*
X124519744Y-68392262D01*
X124323509Y-68239526D01*
X124323507Y-68239525D01*
X124323506Y-68239524D01*
X124104811Y-68121172D01*
X124104802Y-68121169D01*
X123869616Y-68040429D01*
X123624335Y-67999500D01*
X123375665Y-67999500D01*
X123130383Y-68040429D01*
X122895197Y-68121169D01*
X122895188Y-68121172D01*
X122676493Y-68239524D01*
X122480257Y-68392261D01*
X122311833Y-68575217D01*
X122175826Y-68783393D01*
X122075936Y-69011118D01*
X122014892Y-69252175D01*
X122014890Y-69252187D01*
X121994357Y-69499994D01*
X121994357Y-69500005D01*
X122014890Y-69747812D01*
X122014892Y-69747824D01*
X122075936Y-69988881D01*
X122175826Y-70216606D01*
X122311833Y-70424782D01*
X122311836Y-70424785D01*
X122480256Y-70607738D01*
X122602764Y-70703090D01*
X122676488Y-70760472D01*
X122676492Y-70760475D01*
X122784517Y-70818934D01*
X122834108Y-70868153D01*
X122849500Y-70927989D01*
X122849500Y-74572009D01*
X122829815Y-74639048D01*
X122784518Y-74681063D01*
X122676501Y-74739519D01*
X122676494Y-74739523D01*
X122480257Y-74892261D01*
X122311833Y-75075217D01*
X122175826Y-75283393D01*
X122075936Y-75511118D01*
X122014892Y-75752175D01*
X122014890Y-75752187D01*
X121994357Y-75999994D01*
X121994357Y-76000005D01*
X122014890Y-76247812D01*
X122014892Y-76247824D01*
X122061719Y-76432737D01*
X122059094Y-76502557D01*
X122029194Y-76550858D01*
X121494725Y-77085328D01*
X121494724Y-77085329D01*
X121494723Y-77085331D01*
X121432949Y-77177785D01*
X121427558Y-77185853D01*
X121427556Y-77185855D01*
X121423538Y-77191867D01*
X121423535Y-77191873D01*
X121374499Y-77310255D01*
X121374497Y-77310261D01*
X121349500Y-77435928D01*
X121349500Y-78494931D01*
X121330494Y-78560903D01*
X121274211Y-78650477D01*
X121274209Y-78650481D01*
X121214633Y-78820737D01*
X121214630Y-78820750D01*
X121194435Y-78999996D01*
X118800500Y-78999996D01*
X118800500Y-66193713D01*
X119149500Y-66193713D01*
X119149500Y-66406286D01*
X119182753Y-66616239D01*
X119248444Y-66818414D01*
X119344951Y-67007820D01*
X119469890Y-67179786D01*
X119620213Y-67330109D01*
X119792179Y-67455048D01*
X119792181Y-67455049D01*
X119792184Y-67455051D01*
X119981588Y-67551557D01*
X120183757Y-67617246D01*
X120393713Y-67650500D01*
X120393714Y-67650500D01*
X120606286Y-67650500D01*
X120606287Y-67650500D01*
X120816243Y-67617246D01*
X121018412Y-67551557D01*
X121207816Y-67455051D01*
X121229789Y-67439086D01*
X121379786Y-67330109D01*
X121379788Y-67330106D01*
X121379792Y-67330104D01*
X121530104Y-67179792D01*
X121530106Y-67179788D01*
X121530109Y-67179786D01*
X121655048Y-67007820D01*
X121655047Y-67007820D01*
X121655051Y-67007816D01*
X121751557Y-66818412D01*
X121817246Y-66616243D01*
X121850500Y-66406287D01*
X121850500Y-66193713D01*
X163349500Y-66193713D01*
X163349500Y-66406286D01*
X163382753Y-66616239D01*
X163448444Y-66818414D01*
X163544951Y-67007820D01*
X163669890Y-67179786D01*
X163820213Y-67330109D01*
X163992179Y-67455048D01*
X163992181Y-67455049D01*
X163992184Y-67455051D01*
X164181588Y-67551557D01*
X164383757Y-67617246D01*
X164593713Y-67650500D01*
X164593714Y-67650500D01*
X164806286Y-67650500D01*
X164806287Y-67650500D01*
X165016243Y-67617246D01*
X165218412Y-67551557D01*
X165407816Y-67455051D01*
X165429789Y-67439086D01*
X165579786Y-67330109D01*
X165579788Y-67330106D01*
X165579792Y-67330104D01*
X165730104Y-67179792D01*
X165730106Y-67179788D01*
X165730109Y-67179786D01*
X165855048Y-67007820D01*
X165855047Y-67007820D01*
X165855051Y-67007816D01*
X165951557Y-66818412D01*
X166017246Y-66616243D01*
X166050500Y-66406287D01*
X166050500Y-66193713D01*
X166017246Y-65983757D01*
X165951557Y-65781588D01*
X165855051Y-65592184D01*
X165855049Y-65592181D01*
X165855048Y-65592179D01*
X165730109Y-65420213D01*
X165579786Y-65269890D01*
X165407820Y-65144951D01*
X165218414Y-65048444D01*
X165218413Y-65048443D01*
X165218412Y-65048443D01*
X165016243Y-64982754D01*
X165016241Y-64982753D01*
X165016240Y-64982753D01*
X164854957Y-64957208D01*
X164806287Y-64949500D01*
X164593713Y-64949500D01*
X164545042Y-64957208D01*
X164383760Y-64982753D01*
X164181585Y-65048444D01*
X163992179Y-65144951D01*
X163820213Y-65269890D01*
X163669890Y-65420213D01*
X163544951Y-65592179D01*
X163448444Y-65781585D01*
X163382753Y-65983760D01*
X163349500Y-66193713D01*
X121850500Y-66193713D01*
X121817246Y-65983757D01*
X121751557Y-65781588D01*
X121655051Y-65592184D01*
X121655049Y-65592181D01*
X121655048Y-65592179D01*
X121530109Y-65420213D01*
X121379786Y-65269890D01*
X121207820Y-65144951D01*
X121018414Y-65048444D01*
X121018413Y-65048443D01*
X121018412Y-65048443D01*
X120816243Y-64982754D01*
X120816241Y-64982753D01*
X120816240Y-64982753D01*
X120654957Y-64957208D01*
X120606287Y-64949500D01*
X120393713Y-64949500D01*
X120345042Y-64957208D01*
X120183760Y-64982753D01*
X119981585Y-65048444D01*
X119792179Y-65144951D01*
X119620213Y-65269890D01*
X119469890Y-65420213D01*
X119344951Y-65592179D01*
X119248444Y-65781585D01*
X119182753Y-65983760D01*
X119149500Y-66193713D01*
X118800500Y-66193713D01*
X118800500Y-66104427D01*
X118800816Y-66095581D01*
X118815130Y-65895443D01*
X118815131Y-65895442D01*
X118815130Y-65895436D01*
X118817646Y-65877938D01*
X118859356Y-65686199D01*
X118864333Y-65669248D01*
X118932911Y-65485385D01*
X118940259Y-65469298D01*
X119002815Y-65354734D01*
X119034291Y-65297089D01*
X119043845Y-65282221D01*
X119161448Y-65125123D01*
X119173020Y-65111769D01*
X119311769Y-64973020D01*
X119325123Y-64961448D01*
X119482221Y-64843845D01*
X119497089Y-64834291D01*
X119669298Y-64740258D01*
X119685385Y-64732911D01*
X119869248Y-64664333D01*
X119886199Y-64659356D01*
X120077938Y-64617646D01*
X120095436Y-64615130D01*
X120295582Y-64600816D01*
X120304428Y-64600500D01*
X120365892Y-64600500D01*
X164834108Y-64600500D01*
X164895572Y-64600500D01*
X164904418Y-64600816D01*
G37*
%TD.AperFunction*%
%TD*%
M02*
