M48
; DRILL file {KiCad 8.0.8} date 2025-04-21T18:23:54-0400
; FORMAT={-:-/ absolute / metric / decimal}
; #@! TF.CreationDate,2025-04-21T18:23:54-04:00
; #@! TF.GenerationSoftware,Kicad,Pcbnew,8.0.8
; #@! TF.FileFunction,Plated,1,2,PTH
FMAT,2
METRIC
; #@! TA.AperFunction,Plated,PTH,ComponentDrill
T1C0.200
; #@! TA.AperFunction,Plated,PTH,ViaDrill
T2C0.300
; #@! TA.AperFunction,Plated,PTH,ComponentDrill
T3C1.000
; #@! TA.AperFunction,Plated,PTH,ComponentDrill
T4C1.100
%
G90
G05
T1
X143.97Y-84.03
X143.97Y-85.13
X144.52Y-83.48
X144.52Y-84.58
X144.52Y-85.68
X145.07Y-84.03
X145.07Y-85.13
X145.62Y-83.48
X145.62Y-84.58
X145.62Y-85.68
X146.17Y-84.03
X146.17Y-85.13
T2
X119.8Y-87.4
X119.9Y-80.6
X119.9Y-94.0
X119.9Y-99.3
X120.0Y-72.5
X120.0Y-105.8
X121.9Y-108.2
X122.0Y-79.0
X122.1Y-99.4
X122.1Y-105.8
X122.2Y-101.9
X124.0Y-82.0
X124.2Y-65.5
X124.7Y-99.4
X124.7Y-101.9
X124.7Y-105.8
X125.0Y-86.1
X125.0Y-90.3
X125.0Y-96.0
X125.1Y-108.2
X126.2Y-110.6
X126.5Y-77.1
X126.5Y-80.3
X126.5Y-83.2
X126.8Y-68.3
X126.8Y-70.7
X126.8Y-74.7
X126.9Y-87.5
X126.9Y-95.1
X129.0Y-80.2
X129.0Y-83.2
X129.2Y-68.3
X129.2Y-70.7
X129.3Y-74.7
X129.5Y-77.1
X129.54Y-91.54
X130.02Y-88.52
X130.1Y-94.3
X130.3Y-86.6
X130.4Y-80.0
X132.0Y-81.4
X132.0Y-84.6
X132.4Y-65.4
X132.51Y-87.91
X132.7Y-89.7
X132.75Y-98.25
X133.4Y-103.3
X133.5Y-109.4
X133.8Y-90.4
X136.2Y-98.2
X137.7Y-86.6
X137.9Y-78.7
X137.9Y-89.8
X138.4Y-81.6
X140.0Y-106.6
X140.2Y-65.3
X140.2Y-84.3
X141.0Y-88.7
X142.9Y-86.6
X143.0Y-80.3
X143.8Y-96.1
X145.3Y-99.8
X145.4Y-93.1
X145.4Y-94.5
X145.5Y-109.5
X146.4Y-78.8
X147.8Y-65.3
X148.0Y-82.1
X148.1Y-84.9
X149.6Y-78.6
X149.9Y-89.3
X150.2Y-103.8
X154.1Y-92.9
X154.1Y-96.1
X155.1Y-65.3
X155.1Y-109.4
X156.5Y-78.6
X157.4Y-83.2
X158.0Y-85.9
X158.3Y-99.9
X159.4Y-67.1
X159.5Y-87.8
X159.5Y-95.2
X159.5Y-107.0
X161.1Y-89.5
X161.1Y-93.7
X161.1Y-108.7
X161.8Y-65.2
X162.6Y-95.2
X162.7Y-87.8
X162.7Y-107.0
X165.5Y-72.8
X165.7Y-80.2
X165.7Y-86.7
X165.7Y-92.4
X165.7Y-99.1
X165.7Y-104.9
T3
X128.5Y-84.96
X128.5Y-87.5
X128.5Y-90.04
X128.5Y-92.58
X128.5Y-95.12
X136.18Y-94.5
X138.72Y-94.5
X141.26Y-94.5
X143.8Y-94.5
X149.0Y-94.5
X151.54Y-94.5
X154.08Y-94.5
X156.62Y-94.5
X161.1Y-70.04
X161.1Y-72.58
X161.1Y-75.12
X161.1Y-77.66
X161.1Y-80.2
X161.1Y-82.74
X161.1Y-85.28
X161.1Y-87.82
X161.1Y-95.235
X161.1Y-97.775
X161.1Y-101.935
X161.1Y-104.475
X161.1Y-107.015
T4
X123.45Y-100.65
X123.45Y-107.15
X123.5Y-69.5
X123.5Y-76.0
X127.95Y-100.65
X127.95Y-107.15
X128.0Y-69.5
X128.0Y-76.0
M30
