%TF.GenerationSoftware,KiCad,Pcbnew,8.0.8*%
%TF.CreationDate,2025-04-21T18:24:13-04:00*%
%TF.ProjectId,ramen-v2,72616d65-6e2d-4763-922e-6b696361645f,rev?*%
%TF.SameCoordinates,Original*%
%TF.FileFunction,Legend,Top*%
%TF.FilePolarity,Positive*%
%FSLAX46Y46*%
G04 Gerber Fmt 4.6, Leading zero omitted, Abs format (unit mm)*
G04 Created by KiCad (PCBNEW 8.0.8) date 2025-04-21 18:24:13*
%MOMM*%
%LPD*%
G01*
G04 APERTURE LIST*
%ADD10C,0.150000*%
%ADD11C,0.120000*%
G04 APERTURE END LIST*
D10*
X124416667Y-67657200D02*
X124559524Y-67704819D01*
X124559524Y-67704819D02*
X124797619Y-67704819D01*
X124797619Y-67704819D02*
X124892857Y-67657200D01*
X124892857Y-67657200D02*
X124940476Y-67609580D01*
X124940476Y-67609580D02*
X124988095Y-67514342D01*
X124988095Y-67514342D02*
X124988095Y-67419104D01*
X124988095Y-67419104D02*
X124940476Y-67323866D01*
X124940476Y-67323866D02*
X124892857Y-67276247D01*
X124892857Y-67276247D02*
X124797619Y-67228628D01*
X124797619Y-67228628D02*
X124607143Y-67181009D01*
X124607143Y-67181009D02*
X124511905Y-67133390D01*
X124511905Y-67133390D02*
X124464286Y-67085771D01*
X124464286Y-67085771D02*
X124416667Y-66990533D01*
X124416667Y-66990533D02*
X124416667Y-66895295D01*
X124416667Y-66895295D02*
X124464286Y-66800057D01*
X124464286Y-66800057D02*
X124511905Y-66752438D01*
X124511905Y-66752438D02*
X124607143Y-66704819D01*
X124607143Y-66704819D02*
X124845238Y-66704819D01*
X124845238Y-66704819D02*
X124988095Y-66752438D01*
X125321429Y-66704819D02*
X125559524Y-67704819D01*
X125559524Y-67704819D02*
X125750000Y-66990533D01*
X125750000Y-66990533D02*
X125940476Y-67704819D01*
X125940476Y-67704819D02*
X126178572Y-66704819D01*
X127083333Y-67704819D02*
X126511905Y-67704819D01*
X126797619Y-67704819D02*
X126797619Y-66704819D01*
X126797619Y-66704819D02*
X126702381Y-66847676D01*
X126702381Y-66847676D02*
X126607143Y-66942914D01*
X126607143Y-66942914D02*
X126511905Y-66990533D01*
X126033333Y-83759580D02*
X125985714Y-83807200D01*
X125985714Y-83807200D02*
X125842857Y-83854819D01*
X125842857Y-83854819D02*
X125747619Y-83854819D01*
X125747619Y-83854819D02*
X125604762Y-83807200D01*
X125604762Y-83807200D02*
X125509524Y-83711961D01*
X125509524Y-83711961D02*
X125461905Y-83616723D01*
X125461905Y-83616723D02*
X125414286Y-83426247D01*
X125414286Y-83426247D02*
X125414286Y-83283390D01*
X125414286Y-83283390D02*
X125461905Y-83092914D01*
X125461905Y-83092914D02*
X125509524Y-82997676D01*
X125509524Y-82997676D02*
X125604762Y-82902438D01*
X125604762Y-82902438D02*
X125747619Y-82854819D01*
X125747619Y-82854819D02*
X125842857Y-82854819D01*
X125842857Y-82854819D02*
X125985714Y-82902438D01*
X125985714Y-82902438D02*
X126033333Y-82950057D01*
X126366667Y-82854819D02*
X126985714Y-82854819D01*
X126985714Y-82854819D02*
X126652381Y-83235771D01*
X126652381Y-83235771D02*
X126795238Y-83235771D01*
X126795238Y-83235771D02*
X126890476Y-83283390D01*
X126890476Y-83283390D02*
X126938095Y-83331009D01*
X126938095Y-83331009D02*
X126985714Y-83426247D01*
X126985714Y-83426247D02*
X126985714Y-83664342D01*
X126985714Y-83664342D02*
X126938095Y-83759580D01*
X126938095Y-83759580D02*
X126890476Y-83807200D01*
X126890476Y-83807200D02*
X126795238Y-83854819D01*
X126795238Y-83854819D02*
X126509524Y-83854819D01*
X126509524Y-83854819D02*
X126414286Y-83807200D01*
X126414286Y-83807200D02*
X126366667Y-83759580D01*
X145954819Y-94833333D02*
X146669104Y-94833333D01*
X146669104Y-94833333D02*
X146811961Y-94880952D01*
X146811961Y-94880952D02*
X146907200Y-94976190D01*
X146907200Y-94976190D02*
X146954819Y-95119047D01*
X146954819Y-95119047D02*
X146954819Y-95214285D01*
X146050057Y-94404761D02*
X146002438Y-94357142D01*
X146002438Y-94357142D02*
X145954819Y-94261904D01*
X145954819Y-94261904D02*
X145954819Y-94023809D01*
X145954819Y-94023809D02*
X146002438Y-93928571D01*
X146002438Y-93928571D02*
X146050057Y-93880952D01*
X146050057Y-93880952D02*
X146145295Y-93833333D01*
X146145295Y-93833333D02*
X146240533Y-93833333D01*
X146240533Y-93833333D02*
X146383390Y-93880952D01*
X146383390Y-93880952D02*
X146954819Y-94452380D01*
X146954819Y-94452380D02*
X146954819Y-93833333D01*
X163054819Y-96868333D02*
X163769104Y-96868333D01*
X163769104Y-96868333D02*
X163911961Y-96915952D01*
X163911961Y-96915952D02*
X164007200Y-97011190D01*
X164007200Y-97011190D02*
X164054819Y-97154047D01*
X164054819Y-97154047D02*
X164054819Y-97249285D01*
X163388152Y-95963571D02*
X164054819Y-95963571D01*
X163007200Y-96201666D02*
X163721485Y-96439761D01*
X163721485Y-96439761D02*
X163721485Y-95820714D01*
X122454819Y-89466666D02*
X121978628Y-89799999D01*
X122454819Y-90038094D02*
X121454819Y-90038094D01*
X121454819Y-90038094D02*
X121454819Y-89657142D01*
X121454819Y-89657142D02*
X121502438Y-89561904D01*
X121502438Y-89561904D02*
X121550057Y-89514285D01*
X121550057Y-89514285D02*
X121645295Y-89466666D01*
X121645295Y-89466666D02*
X121788152Y-89466666D01*
X121788152Y-89466666D02*
X121883390Y-89514285D01*
X121883390Y-89514285D02*
X121931009Y-89561904D01*
X121931009Y-89561904D02*
X121978628Y-89657142D01*
X121978628Y-89657142D02*
X121978628Y-90038094D01*
X121550057Y-89085713D02*
X121502438Y-89038094D01*
X121502438Y-89038094D02*
X121454819Y-88942856D01*
X121454819Y-88942856D02*
X121454819Y-88704761D01*
X121454819Y-88704761D02*
X121502438Y-88609523D01*
X121502438Y-88609523D02*
X121550057Y-88561904D01*
X121550057Y-88561904D02*
X121645295Y-88514285D01*
X121645295Y-88514285D02*
X121740533Y-88514285D01*
X121740533Y-88514285D02*
X121883390Y-88561904D01*
X121883390Y-88561904D02*
X122454819Y-89133332D01*
X122454819Y-89133332D02*
X122454819Y-88514285D01*
X131833333Y-84959580D02*
X131785714Y-85007200D01*
X131785714Y-85007200D02*
X131642857Y-85054819D01*
X131642857Y-85054819D02*
X131547619Y-85054819D01*
X131547619Y-85054819D02*
X131404762Y-85007200D01*
X131404762Y-85007200D02*
X131309524Y-84911961D01*
X131309524Y-84911961D02*
X131261905Y-84816723D01*
X131261905Y-84816723D02*
X131214286Y-84626247D01*
X131214286Y-84626247D02*
X131214286Y-84483390D01*
X131214286Y-84483390D02*
X131261905Y-84292914D01*
X131261905Y-84292914D02*
X131309524Y-84197676D01*
X131309524Y-84197676D02*
X131404762Y-84102438D01*
X131404762Y-84102438D02*
X131547619Y-84054819D01*
X131547619Y-84054819D02*
X131642857Y-84054819D01*
X131642857Y-84054819D02*
X131785714Y-84102438D01*
X131785714Y-84102438D02*
X131833333Y-84150057D01*
X132690476Y-84388152D02*
X132690476Y-85054819D01*
X132452381Y-84007200D02*
X132214286Y-84721485D01*
X132214286Y-84721485D02*
X132833333Y-84721485D01*
X122454819Y-85166666D02*
X121978628Y-85499999D01*
X122454819Y-85738094D02*
X121454819Y-85738094D01*
X121454819Y-85738094D02*
X121454819Y-85357142D01*
X121454819Y-85357142D02*
X121502438Y-85261904D01*
X121502438Y-85261904D02*
X121550057Y-85214285D01*
X121550057Y-85214285D02*
X121645295Y-85166666D01*
X121645295Y-85166666D02*
X121788152Y-85166666D01*
X121788152Y-85166666D02*
X121883390Y-85214285D01*
X121883390Y-85214285D02*
X121931009Y-85261904D01*
X121931009Y-85261904D02*
X121978628Y-85357142D01*
X121978628Y-85357142D02*
X121978628Y-85738094D01*
X121454819Y-84833332D02*
X121454819Y-84214285D01*
X121454819Y-84214285D02*
X121835771Y-84547618D01*
X121835771Y-84547618D02*
X121835771Y-84404761D01*
X121835771Y-84404761D02*
X121883390Y-84309523D01*
X121883390Y-84309523D02*
X121931009Y-84261904D01*
X121931009Y-84261904D02*
X122026247Y-84214285D01*
X122026247Y-84214285D02*
X122264342Y-84214285D01*
X122264342Y-84214285D02*
X122359580Y-84261904D01*
X122359580Y-84261904D02*
X122407200Y-84309523D01*
X122407200Y-84309523D02*
X122454819Y-84404761D01*
X122454819Y-84404761D02*
X122454819Y-84690475D01*
X122454819Y-84690475D02*
X122407200Y-84785713D01*
X122407200Y-84785713D02*
X122359580Y-84833332D01*
X158154819Y-95033333D02*
X158869104Y-95033333D01*
X158869104Y-95033333D02*
X159011961Y-95080952D01*
X159011961Y-95080952D02*
X159107200Y-95176190D01*
X159107200Y-95176190D02*
X159154819Y-95319047D01*
X159154819Y-95319047D02*
X159154819Y-95414285D01*
X158154819Y-94652380D02*
X158154819Y-94033333D01*
X158154819Y-94033333D02*
X158535771Y-94366666D01*
X158535771Y-94366666D02*
X158535771Y-94223809D01*
X158535771Y-94223809D02*
X158583390Y-94128571D01*
X158583390Y-94128571D02*
X158631009Y-94080952D01*
X158631009Y-94080952D02*
X158726247Y-94033333D01*
X158726247Y-94033333D02*
X158964342Y-94033333D01*
X158964342Y-94033333D02*
X159059580Y-94080952D01*
X159059580Y-94080952D02*
X159107200Y-94128571D01*
X159107200Y-94128571D02*
X159154819Y-94223809D01*
X159154819Y-94223809D02*
X159154819Y-94509523D01*
X159154819Y-94509523D02*
X159107200Y-94604761D01*
X159107200Y-94604761D02*
X159059580Y-94652380D01*
X130154819Y-90633333D02*
X130869104Y-90633333D01*
X130869104Y-90633333D02*
X131011961Y-90680952D01*
X131011961Y-90680952D02*
X131107200Y-90776190D01*
X131107200Y-90776190D02*
X131154819Y-90919047D01*
X131154819Y-90919047D02*
X131154819Y-91014285D01*
X130154819Y-90252380D02*
X130154819Y-89585714D01*
X130154819Y-89585714D02*
X131154819Y-90014285D01*
X163054819Y-104768333D02*
X163769104Y-104768333D01*
X163769104Y-104768333D02*
X163911961Y-104815952D01*
X163911961Y-104815952D02*
X164007200Y-104911190D01*
X164007200Y-104911190D02*
X164054819Y-105054047D01*
X164054819Y-105054047D02*
X164054819Y-105149285D01*
X163054819Y-103863571D02*
X163054819Y-104054047D01*
X163054819Y-104054047D02*
X163102438Y-104149285D01*
X163102438Y-104149285D02*
X163150057Y-104196904D01*
X163150057Y-104196904D02*
X163292914Y-104292142D01*
X163292914Y-104292142D02*
X163483390Y-104339761D01*
X163483390Y-104339761D02*
X163864342Y-104339761D01*
X163864342Y-104339761D02*
X163959580Y-104292142D01*
X163959580Y-104292142D02*
X164007200Y-104244523D01*
X164007200Y-104244523D02*
X164054819Y-104149285D01*
X164054819Y-104149285D02*
X164054819Y-103958809D01*
X164054819Y-103958809D02*
X164007200Y-103863571D01*
X164007200Y-103863571D02*
X163959580Y-103815952D01*
X163959580Y-103815952D02*
X163864342Y-103768333D01*
X163864342Y-103768333D02*
X163626247Y-103768333D01*
X163626247Y-103768333D02*
X163531009Y-103815952D01*
X163531009Y-103815952D02*
X163483390Y-103863571D01*
X163483390Y-103863571D02*
X163435771Y-103958809D01*
X163435771Y-103958809D02*
X163435771Y-104149285D01*
X163435771Y-104149285D02*
X163483390Y-104244523D01*
X163483390Y-104244523D02*
X163531009Y-104292142D01*
X163531009Y-104292142D02*
X163626247Y-104339761D01*
X163054819Y-80573333D02*
X163769104Y-80573333D01*
X163769104Y-80573333D02*
X163911961Y-80620952D01*
X163911961Y-80620952D02*
X164007200Y-80716190D01*
X164007200Y-80716190D02*
X164054819Y-80859047D01*
X164054819Y-80859047D02*
X164054819Y-80954285D01*
X163054819Y-79620952D02*
X163054819Y-80097142D01*
X163054819Y-80097142D02*
X163531009Y-80144761D01*
X163531009Y-80144761D02*
X163483390Y-80097142D01*
X163483390Y-80097142D02*
X163435771Y-80001904D01*
X163435771Y-80001904D02*
X163435771Y-79763809D01*
X163435771Y-79763809D02*
X163483390Y-79668571D01*
X163483390Y-79668571D02*
X163531009Y-79620952D01*
X163531009Y-79620952D02*
X163626247Y-79573333D01*
X163626247Y-79573333D02*
X163864342Y-79573333D01*
X163864342Y-79573333D02*
X163959580Y-79620952D01*
X163959580Y-79620952D02*
X164007200Y-79668571D01*
X164007200Y-79668571D02*
X164054819Y-79763809D01*
X164054819Y-79763809D02*
X164054819Y-80001904D01*
X164054819Y-80001904D02*
X164007200Y-80097142D01*
X164007200Y-80097142D02*
X163959580Y-80144761D01*
X129433333Y-83759580D02*
X129385714Y-83807200D01*
X129385714Y-83807200D02*
X129242857Y-83854819D01*
X129242857Y-83854819D02*
X129147619Y-83854819D01*
X129147619Y-83854819D02*
X129004762Y-83807200D01*
X129004762Y-83807200D02*
X128909524Y-83711961D01*
X128909524Y-83711961D02*
X128861905Y-83616723D01*
X128861905Y-83616723D02*
X128814286Y-83426247D01*
X128814286Y-83426247D02*
X128814286Y-83283390D01*
X128814286Y-83283390D02*
X128861905Y-83092914D01*
X128861905Y-83092914D02*
X128909524Y-82997676D01*
X128909524Y-82997676D02*
X129004762Y-82902438D01*
X129004762Y-82902438D02*
X129147619Y-82854819D01*
X129147619Y-82854819D02*
X129242857Y-82854819D01*
X129242857Y-82854819D02*
X129385714Y-82902438D01*
X129385714Y-82902438D02*
X129433333Y-82950057D01*
X129814286Y-82950057D02*
X129861905Y-82902438D01*
X129861905Y-82902438D02*
X129957143Y-82854819D01*
X129957143Y-82854819D02*
X130195238Y-82854819D01*
X130195238Y-82854819D02*
X130290476Y-82902438D01*
X130290476Y-82902438D02*
X130338095Y-82950057D01*
X130338095Y-82950057D02*
X130385714Y-83045295D01*
X130385714Y-83045295D02*
X130385714Y-83140533D01*
X130385714Y-83140533D02*
X130338095Y-83283390D01*
X130338095Y-83283390D02*
X129766667Y-83854819D01*
X129766667Y-83854819D02*
X130385714Y-83854819D01*
X122554819Y-93166666D02*
X122078628Y-93499999D01*
X122554819Y-93738094D02*
X121554819Y-93738094D01*
X121554819Y-93738094D02*
X121554819Y-93357142D01*
X121554819Y-93357142D02*
X121602438Y-93261904D01*
X121602438Y-93261904D02*
X121650057Y-93214285D01*
X121650057Y-93214285D02*
X121745295Y-93166666D01*
X121745295Y-93166666D02*
X121888152Y-93166666D01*
X121888152Y-93166666D02*
X121983390Y-93214285D01*
X121983390Y-93214285D02*
X122031009Y-93261904D01*
X122031009Y-93261904D02*
X122078628Y-93357142D01*
X122078628Y-93357142D02*
X122078628Y-93738094D01*
X121888152Y-92309523D02*
X122554819Y-92309523D01*
X121507200Y-92547618D02*
X122221485Y-92785713D01*
X122221485Y-92785713D02*
X122221485Y-92166666D01*
X133064819Y-90271904D02*
X133874342Y-90271904D01*
X133874342Y-90271904D02*
X133969580Y-90224285D01*
X133969580Y-90224285D02*
X134017200Y-90176666D01*
X134017200Y-90176666D02*
X134064819Y-90081428D01*
X134064819Y-90081428D02*
X134064819Y-89890952D01*
X134064819Y-89890952D02*
X134017200Y-89795714D01*
X134017200Y-89795714D02*
X133969580Y-89748095D01*
X133969580Y-89748095D02*
X133874342Y-89700476D01*
X133874342Y-89700476D02*
X133064819Y-89700476D01*
X134064819Y-88700476D02*
X134064819Y-89271904D01*
X134064819Y-88986190D02*
X133064819Y-88986190D01*
X133064819Y-88986190D02*
X133207676Y-89081428D01*
X133207676Y-89081428D02*
X133302914Y-89176666D01*
X133302914Y-89176666D02*
X133350533Y-89271904D01*
X122954819Y-79566666D02*
X122478628Y-79899999D01*
X122954819Y-80138094D02*
X121954819Y-80138094D01*
X121954819Y-80138094D02*
X121954819Y-79757142D01*
X121954819Y-79757142D02*
X122002438Y-79661904D01*
X122002438Y-79661904D02*
X122050057Y-79614285D01*
X122050057Y-79614285D02*
X122145295Y-79566666D01*
X122145295Y-79566666D02*
X122288152Y-79566666D01*
X122288152Y-79566666D02*
X122383390Y-79614285D01*
X122383390Y-79614285D02*
X122431009Y-79661904D01*
X122431009Y-79661904D02*
X122478628Y-79757142D01*
X122478628Y-79757142D02*
X122478628Y-80138094D01*
X122954819Y-78614285D02*
X122954819Y-79185713D01*
X122954819Y-78899999D02*
X121954819Y-78899999D01*
X121954819Y-78899999D02*
X122097676Y-78995237D01*
X122097676Y-78995237D02*
X122192914Y-79090475D01*
X122192914Y-79090475D02*
X122240533Y-79185713D01*
X156333333Y-80304819D02*
X156000000Y-79828628D01*
X155761905Y-80304819D02*
X155761905Y-79304819D01*
X155761905Y-79304819D02*
X156142857Y-79304819D01*
X156142857Y-79304819D02*
X156238095Y-79352438D01*
X156238095Y-79352438D02*
X156285714Y-79400057D01*
X156285714Y-79400057D02*
X156333333Y-79495295D01*
X156333333Y-79495295D02*
X156333333Y-79638152D01*
X156333333Y-79638152D02*
X156285714Y-79733390D01*
X156285714Y-79733390D02*
X156238095Y-79781009D01*
X156238095Y-79781009D02*
X156142857Y-79828628D01*
X156142857Y-79828628D02*
X155761905Y-79828628D01*
X157190476Y-79304819D02*
X157000000Y-79304819D01*
X157000000Y-79304819D02*
X156904762Y-79352438D01*
X156904762Y-79352438D02*
X156857143Y-79400057D01*
X156857143Y-79400057D02*
X156761905Y-79542914D01*
X156761905Y-79542914D02*
X156714286Y-79733390D01*
X156714286Y-79733390D02*
X156714286Y-80114342D01*
X156714286Y-80114342D02*
X156761905Y-80209580D01*
X156761905Y-80209580D02*
X156809524Y-80257200D01*
X156809524Y-80257200D02*
X156904762Y-80304819D01*
X156904762Y-80304819D02*
X157095238Y-80304819D01*
X157095238Y-80304819D02*
X157190476Y-80257200D01*
X157190476Y-80257200D02*
X157238095Y-80209580D01*
X157238095Y-80209580D02*
X157285714Y-80114342D01*
X157285714Y-80114342D02*
X157285714Y-79876247D01*
X157285714Y-79876247D02*
X157238095Y-79781009D01*
X157238095Y-79781009D02*
X157190476Y-79733390D01*
X157190476Y-79733390D02*
X157095238Y-79685771D01*
X157095238Y-79685771D02*
X156904762Y-79685771D01*
X156904762Y-79685771D02*
X156809524Y-79733390D01*
X156809524Y-79733390D02*
X156761905Y-79781009D01*
X156761905Y-79781009D02*
X156714286Y-79876247D01*
X130807200Y-105733332D02*
X130854819Y-105590475D01*
X130854819Y-105590475D02*
X130854819Y-105352380D01*
X130854819Y-105352380D02*
X130807200Y-105257142D01*
X130807200Y-105257142D02*
X130759580Y-105209523D01*
X130759580Y-105209523D02*
X130664342Y-105161904D01*
X130664342Y-105161904D02*
X130569104Y-105161904D01*
X130569104Y-105161904D02*
X130473866Y-105209523D01*
X130473866Y-105209523D02*
X130426247Y-105257142D01*
X130426247Y-105257142D02*
X130378628Y-105352380D01*
X130378628Y-105352380D02*
X130331009Y-105542856D01*
X130331009Y-105542856D02*
X130283390Y-105638094D01*
X130283390Y-105638094D02*
X130235771Y-105685713D01*
X130235771Y-105685713D02*
X130140533Y-105733332D01*
X130140533Y-105733332D02*
X130045295Y-105733332D01*
X130045295Y-105733332D02*
X129950057Y-105685713D01*
X129950057Y-105685713D02*
X129902438Y-105638094D01*
X129902438Y-105638094D02*
X129854819Y-105542856D01*
X129854819Y-105542856D02*
X129854819Y-105304761D01*
X129854819Y-105304761D02*
X129902438Y-105161904D01*
X129854819Y-104828570D02*
X130854819Y-104590475D01*
X130854819Y-104590475D02*
X130140533Y-104399999D01*
X130140533Y-104399999D02*
X130854819Y-104209523D01*
X130854819Y-104209523D02*
X129854819Y-103971428D01*
X129950057Y-103638094D02*
X129902438Y-103590475D01*
X129902438Y-103590475D02*
X129854819Y-103495237D01*
X129854819Y-103495237D02*
X129854819Y-103257142D01*
X129854819Y-103257142D02*
X129902438Y-103161904D01*
X129902438Y-103161904D02*
X129950057Y-103114285D01*
X129950057Y-103114285D02*
X130045295Y-103066666D01*
X130045295Y-103066666D02*
X130140533Y-103066666D01*
X130140533Y-103066666D02*
X130283390Y-103114285D01*
X130283390Y-103114285D02*
X130854819Y-103685713D01*
X130854819Y-103685713D02*
X130854819Y-103066666D01*
D11*
%TO.C,SW1*%
X122500000Y-70500000D02*
X122500000Y-75000000D01*
X125000000Y-76250000D02*
X126500000Y-76250000D01*
X126500000Y-69250000D02*
X125000000Y-69250000D01*
X129000000Y-75000000D02*
X129000000Y-70500000D01*
%TO.C,C3*%
X125600000Y-79518748D02*
X125600000Y-80941252D01*
X127420000Y-79518748D02*
X127420000Y-80941252D01*
%TO.C,J2*%
X134850000Y-93170000D02*
X134850000Y-95830000D01*
X142530000Y-93170000D02*
X134850000Y-93170000D01*
X142530000Y-93170000D02*
X142530000Y-95830000D01*
X142530000Y-95830000D02*
X134850000Y-95830000D01*
X143800000Y-93170000D02*
X145130000Y-93170000D01*
X145130000Y-93170000D02*
X145130000Y-94500000D01*
%TO.C,J4*%
X159770000Y-96505000D02*
X159770000Y-93905000D01*
X162430000Y-93905000D02*
X159770000Y-93905000D01*
X162430000Y-96505000D02*
X159770000Y-96505000D01*
X162430000Y-96505000D02*
X162430000Y-93905000D01*
X162430000Y-97775000D02*
X162430000Y-99105000D01*
X162430000Y-99105000D02*
X161100000Y-99105000D01*
%TO.C,R2*%
X122965000Y-88872936D02*
X122965000Y-89327064D01*
X124435000Y-88872936D02*
X124435000Y-89327064D01*
%TO.C,C4*%
X131090000Y-82148752D02*
X131090000Y-80726248D01*
X132910000Y-82148752D02*
X132910000Y-80726248D01*
%TO.C,R3*%
X122965000Y-84772936D02*
X122965000Y-85227064D01*
X124435000Y-84772936D02*
X124435000Y-85227064D01*
%TO.C,J3*%
X147670000Y-93170000D02*
X147670000Y-95830000D01*
X155350000Y-93170000D02*
X147670000Y-93170000D01*
X155350000Y-93170000D02*
X155350000Y-95830000D01*
X155350000Y-95830000D02*
X147670000Y-95830000D01*
X156620000Y-93170000D02*
X157950000Y-93170000D01*
X157950000Y-93170000D02*
X157950000Y-94500000D01*
%TO.C,J7*%
X127170000Y-83630000D02*
X128500000Y-83630000D01*
X127170000Y-84960000D02*
X127170000Y-83630000D01*
X127170000Y-86230000D02*
X127170000Y-96450000D01*
X127170000Y-86230000D02*
X129830000Y-86230000D01*
X127170000Y-96450000D02*
X129830000Y-96450000D01*
X129830000Y-86230000D02*
X129830000Y-96450000D01*
%TO.C,J6*%
X159770000Y-100605000D02*
X161100000Y-100605000D01*
X159770000Y-101935000D02*
X159770000Y-100605000D01*
X159770000Y-103205000D02*
X159770000Y-108345000D01*
X159770000Y-103205000D02*
X162430000Y-103205000D01*
X159770000Y-108345000D02*
X162430000Y-108345000D01*
X162430000Y-103205000D02*
X162430000Y-108345000D01*
%TO.C,J5*%
X159770000Y-68710000D02*
X161100000Y-68710000D01*
X159770000Y-70040000D02*
X159770000Y-68710000D01*
X159770000Y-71310000D02*
X159770000Y-89150000D01*
X159770000Y-71310000D02*
X162430000Y-71310000D01*
X159770000Y-89150000D02*
X162430000Y-89150000D01*
X162430000Y-71310000D02*
X162430000Y-89150000D01*
%TO.C,C2*%
X128090000Y-79526248D02*
X128090000Y-80948752D01*
X129910000Y-79526248D02*
X129910000Y-80948752D01*
%TO.C,R4*%
X122965000Y-93072936D02*
X122965000Y-93527064D01*
X124435000Y-93072936D02*
X124435000Y-93527064D01*
%TO.C,U1*%
X135000000Y-71170000D02*
X135000000Y-76980000D01*
X135000000Y-71170000D02*
X153220000Y-71170000D01*
X135000000Y-91090000D02*
X135000000Y-91390000D01*
X135000000Y-91390000D02*
X153220000Y-91390000D01*
X153220000Y-71170000D02*
X153220000Y-77670000D01*
X153220000Y-91090000D02*
X153220000Y-91390000D01*
X135010000Y-77680000D02*
X134510000Y-77680000D01*
X135010000Y-77180000D01*
X135010000Y-77680000D01*
G36*
X135010000Y-77680000D02*
G01*
X134510000Y-77680000D01*
X135010000Y-77180000D01*
X135010000Y-77680000D01*
G37*
%TO.C,R1*%
X123265000Y-79272936D02*
X123265000Y-79727064D01*
X124735000Y-79272936D02*
X124735000Y-79727064D01*
%TO.C,R6*%
X156272936Y-80765000D02*
X156727064Y-80765000D01*
X156272936Y-82235000D02*
X156727064Y-82235000D01*
%TO.C,SW2*%
X122450000Y-101650000D02*
X122450000Y-106150000D01*
X124950000Y-107400000D02*
X126450000Y-107400000D01*
X126450000Y-100400000D02*
X124950000Y-100400000D01*
X128950000Y-106150000D02*
X128950000Y-101650000D01*
%TD*%
M02*
