%TF.GenerationSoftware,KiCad,Pcbnew,8.0.8*%
%TF.CreationDate,2025-04-21T18:24:13-04:00*%
%TF.ProjectId,ramen-v2,72616d65-6e2d-4763-922e-6b696361645f,rev?*%
%TF.SameCoordinates,Original*%
%TF.FileFunction,Soldermask,Top*%
%TF.FilePolarity,Negative*%
%FSLAX46Y46*%
G04 Gerber Fmt 4.6, Leading zero omitted, Abs format (unit mm)*
G04 Created by KiCad (PCBNEW 8.0.8) date 2025-04-21 18:24:13*
%MOMM*%
%LPD*%
G01*
G04 APERTURE LIST*
G04 Aperture macros list*
%AMRoundRect*
0 Rectangle with rounded corners*
0 $1 Rounding radius*
0 $2 $3 $4 $5 $6 $7 $8 $9 X,Y pos of 4 corners*
0 Add a 4 corners polygon primitive as box body*
4,1,4,$2,$3,$4,$5,$6,$7,$8,$9,$2,$3,0*
0 Add four circle primitives for the rounded corners*
1,1,$1+$1,$2,$3*
1,1,$1+$1,$4,$5*
1,1,$1+$1,$6,$7*
1,1,$1+$1,$8,$9*
0 Add four rect primitives between the rounded corners*
20,1,$1+$1,$2,$3,$4,$5,0*
20,1,$1+$1,$4,$5,$6,$7,0*
20,1,$1+$1,$6,$7,$8,$9,0*
20,1,$1+$1,$8,$9,$2,$3,0*%
G04 Aperture macros list end*
%ADD10C,2.200000*%
%ADD11C,2.000000*%
%ADD12RoundRect,0.250000X-0.650000X0.412500X-0.650000X-0.412500X0.650000X-0.412500X0.650000X0.412500X0*%
%ADD13R,1.700000X1.700000*%
%ADD14O,1.700000X1.700000*%
%ADD15RoundRect,0.250000X-0.450000X0.350000X-0.450000X-0.350000X0.450000X-0.350000X0.450000X0.350000X0*%
%ADD16RoundRect,0.250000X0.650000X-0.412500X0.650000X0.412500X-0.650000X0.412500X-0.650000X-0.412500X0*%
%ADD17R,1.500000X0.900000*%
%ADD18C,0.600000*%
%ADD19R,2.900000X2.900000*%
%ADD20RoundRect,0.250000X-0.350000X-0.450000X0.350000X-0.450000X0.350000X0.450000X-0.350000X0.450000X0*%
G04 APERTURE END LIST*
D10*
%TO.C,H1*%
X120500000Y-66300000D03*
%TD*%
D11*
%TO.C,SW1*%
X128000000Y-69500000D03*
X128000000Y-76000000D03*
X123500000Y-69500000D03*
X123500000Y-76000000D03*
%TD*%
D12*
%TO.C,C3*%
X126510000Y-78667500D03*
X126510000Y-81792500D03*
%TD*%
D10*
%TO.C,H4*%
X164700000Y-110700000D03*
%TD*%
%TO.C,H3*%
X120500000Y-110700000D03*
%TD*%
D13*
%TO.C,J2*%
X143800000Y-94500000D03*
D14*
X141260000Y-94500000D03*
X138720000Y-94500000D03*
X136180000Y-94500000D03*
%TD*%
D13*
%TO.C,J4*%
X161100000Y-97775000D03*
D14*
X161100000Y-95235000D03*
%TD*%
D15*
%TO.C,R2*%
X123700000Y-88100000D03*
X123700000Y-90100000D03*
%TD*%
D16*
%TO.C,C4*%
X132000000Y-83000000D03*
X132000000Y-79875000D03*
%TD*%
D15*
%TO.C,R3*%
X123700000Y-84000000D03*
X123700000Y-86000000D03*
%TD*%
D13*
%TO.C,J3*%
X156620000Y-94500000D03*
D14*
X154080000Y-94500000D03*
X151540000Y-94500000D03*
X149000000Y-94500000D03*
%TD*%
D13*
%TO.C,J7*%
X128500000Y-84960000D03*
D14*
X128500000Y-87500000D03*
X128500000Y-90040000D03*
X128500000Y-92580000D03*
X128500000Y-95120000D03*
%TD*%
D13*
%TO.C,J6*%
X161100000Y-101935000D03*
D14*
X161100000Y-104475000D03*
X161100000Y-107015000D03*
%TD*%
D13*
%TO.C,J5*%
X161100000Y-70040000D03*
D14*
X161100000Y-72580000D03*
X161100000Y-75120000D03*
X161100000Y-77660000D03*
X161100000Y-80200000D03*
X161100000Y-82740000D03*
X161100000Y-85280000D03*
X161100000Y-87820000D03*
%TD*%
D12*
%TO.C,C2*%
X129000000Y-78675000D03*
X129000000Y-81800000D03*
%TD*%
D15*
%TO.C,R4*%
X123700000Y-92300000D03*
X123700000Y-94300000D03*
%TD*%
D17*
%TO.C,U1*%
X135360000Y-78380000D03*
X135360000Y-79880000D03*
X135360000Y-81380000D03*
X135360000Y-82880000D03*
X135360000Y-84380000D03*
X135360000Y-85880000D03*
X135360000Y-87380000D03*
X135360000Y-88880000D03*
X135360000Y-90380000D03*
X152860000Y-90380000D03*
X152860000Y-88880000D03*
X152860000Y-87380000D03*
X152860000Y-85880000D03*
X152860000Y-84380000D03*
X152860000Y-82880000D03*
X152860000Y-81380000D03*
X152860000Y-79880000D03*
X152860000Y-78380000D03*
D18*
X143970000Y-84030000D03*
X143970000Y-85130000D03*
X144520000Y-83480000D03*
X144520000Y-84580000D03*
X144520000Y-85680000D03*
X145070000Y-84030000D03*
D19*
X145070000Y-84580000D03*
D18*
X145070000Y-85130000D03*
X145620000Y-83480000D03*
X145620000Y-84580000D03*
X145620000Y-85680000D03*
X146170000Y-84030000D03*
X146170000Y-85130000D03*
%TD*%
D15*
%TO.C,R1*%
X124000000Y-78500000D03*
X124000000Y-80500000D03*
%TD*%
D20*
%TO.C,R6*%
X155500000Y-81500000D03*
X157500000Y-81500000D03*
%TD*%
D11*
%TO.C,SW2*%
X123450000Y-107150000D03*
X123450000Y-100650000D03*
X127950000Y-107150000D03*
X127950000Y-100650000D03*
%TD*%
D10*
%TO.C,H2*%
X164700000Y-66300000D03*
%TD*%
M02*
